<svg xmlns="http://www.w3.org/2000/svg" width="200" height="200" aria-hidden="true">
  <title>Vinternet CSS Animation</title>
    <path fill="#FFF" d="M0 0h200v200H0z"/>
    <path fill="#19191A" d="M2 2h196v196H2z"/>
    <g>
      <path fill="#F7F7F7" stroke="#CCC" stroke-miterlimit="10" d="M25 168.456C25 174.831 30.052 180 36.283 180h127.433c6.231 0 11.284-5.169 11.284-11.544V31.543C175 25.168 169.947 20 163.716 20H36.283C30.052 20 25 25.168 25 31.543v136.913z"/>
      <path fill="#D6BFD3" d="M104.401 99.117s-2.64.34-3.52.327c-.44-.005-2.053.051-3.479-.074-1.491-.131-3.029-.456-3.029-.456L70.938 59.94s1.545-4.616 2.713-6.267c.573-.808 1.853-2.84 3.229-4.465a30.19 30.19 0 0 1 3.105-3.136l21.128 39.206 13.895-42.759s2.42 1.299 4.112 2.762c1.408 1.217 3.571 3.145 4.778 4.717 1.458 1.898 2.918 4.578 2.918 4.578l-22.415 44.541z"/>
      <path fill="#864778" d="M113.941 96.059s-2.546 1.258-4.102 1.804c-.938.33-4.645 1.406-6.998 1.589-2.354.185-5.506-.134-5.506-.134l-22.642-47.23s1.246-2.114 2.341-3.151c.607-.576 2.175-2.224 3.525-3.353 1.412-1.18 2.931-2.155 2.931-2.155l21.112 43.879 18.302-38.349s1.76 2.145 2.708 3.526c.524.764 1.885 3.192 2.804 5.596.92 2.404 1.399 4.783 1.399 4.783l-15.874 33.195z"/>
      <path fill="#FFF" d="M99.999 38.566c16.809 0 30.434 13.625 30.434 30.434 0 16.807-13.625 30.434-30.434 30.434-16.807 0-30.432-13.626-30.432-30.434-.001-16.809 13.624-30.434 30.432-30.434m0-2.454c-18.133 0-32.887 14.754-32.887 32.888 0 8.784 3.421 17.043 9.633 23.255 6.211 6.211 14.47 9.632 23.254 9.632 8.786 0 17.044-3.421 23.255-9.632 6.212-6.212 9.633-14.471 9.633-23.255 0-8.785-3.421-17.043-9.633-23.255-6.211-6.211-14.47-9.633-23.255-9.633z"/>
      <path fill="#874878" d="M99.999 36.159c18.139 0 32.842 14.703 32.842 32.841s-14.703 32.841-32.842 32.841c-18.137 0-32.841-14.703-32.841-32.841s14.704-32.841 32.841-32.841m0-4.879c-10.074 0-19.547 3.925-26.672 11.048C66.203 49.453 62.28 58.924 62.28 69c0 10.074 3.923 19.547 11.047 26.672 7.125 7.123 16.598 11.047 26.672 11.047 10.076 0 19.548-3.924 26.671-11.047 7.125-7.125 11.049-16.598 11.049-26.672 0-10.076-3.924-19.547-11.049-26.672-7.123-7.123-16.596-11.048-26.671-11.048z"/>
      <path fill="#D5BFD3" d="M99.999 30.402c21.318 0 38.598 17.283 38.598 38.596 0 21.318-17.28 38.598-38.598 38.598-21.315 0-38.596-17.28-38.596-38.598-.001-21.313 17.281-38.596 38.596-38.596m0-.618c-10.474 0-20.321 4.08-27.729 11.486-7.406 7.408-11.486 17.255-11.486 27.729s4.08 20.324 11.486 27.732c7.406 7.406 17.254 11.485 27.729 11.485s20.325-4.079 27.731-11.485c7.407-7.408 11.485-17.256 11.485-27.732 0-10.474-4.078-20.321-11.485-27.729-7.409-7.407-17.257-11.486-27.731-11.486z"/>
      <path fill="#FFF" d="M99.999 29.63c21.744 0 39.369 17.627 39.369 39.368 0 21.744-17.625 39.37-39.369 39.37-21.742 0-39.368-17.626-39.368-39.37-.001-21.74 17.625-39.368 39.368-39.368m0-.63c-10.684 0-20.728 4.16-28.284 11.716C64.16 48.271 60 58.315 60 68.999s4.16 20.73 11.715 28.286C79.27 104.84 89.314 109 99.999 109c10.685 0 20.729-4.16 28.286-11.716C135.839 89.729 140 79.684 140 68.999c0-10.684-4.161-20.728-11.716-28.282C120.728 33.16 110.683 29 99.999 29z"/>
      <path fill="#864778" stroke="#D5BFD3" stroke-miterlimit="10" d="M60 130.226a8.436 8.436 0 0 0 8.436 8.437h63.129a8.436 8.436 0 0 0 8.436-8.437 8.435 8.435 0 0 0-8.436-8.436H68.436A8.435 8.435 0 0 0 60 130.226zM60 157.032a8.435 8.435 0 0 0 8.436 8.436h63.129a8.435 8.435 0 0 0 8.436-8.436 8.435 8.435 0 0 0-8.436-8.436H68.436A8.436 8.436 0 0 0 60 157.032z"/>
    </g>
</svg>
