<svg xmlns="http://www.w3.org/2000/svg" xmlns:xlink="http://www.w3.org/1999/xlink" width="759.686" height="402.52" aria-hidden="true">
	<title>The Vinternet Artwork</title>
    <defs>
      <path id="a" d="M0 0h759.686v402.52H0z"/>
    </defs>
    <clipPath id="b">
      <use xlink:href="#a" overflow="visible"/>
    </clipPath>
    <path clip-path="url(#b)" d="M72.171 308.462c.012 2.908.296 5.655 1.348 7.587.074.134.152.259.229.383 1.882 2.942 5.864 4.17 40.659 14.744 34.78 10.588 100.374 30.494 137.46 41.69 37.083 11.188 45.667 13.634 52.302 15.217 6.644 1.59 11.351 2.302 15.839 2.666 4.489.349 8.788.349 43.164-7.883 34.375-8.206 98.84-24.656 131.637-33.199 32.797-8.525 33.926-9.141 34.518-11.832.06-.25.11-.525.162-.828.018-.1.03-.196.048-.304.403-2.76.491-7.071.563-11.102-.192.856-1.8 1.882-35.552 10.176-34.271 8.43-101.687 24.375-137.192 32.278-35.508 7.921-39.085 7.817-43.532 6.953-4.446-.873-9.761-2.504-49.75-14.21-39.997-11.684-114.684-33.443-152.477-44.535-37.807-11.084-38.72-11.502-39.285-12.107-.063 1.449-.135 2.901-.141 4.306"/>
    <path clip-path="url(#b)" fill="none" stroke="#C0C2C1" stroke-width="1.983" stroke-miterlimit="10" d="M72.171 303.8c.012 2.898.296 5.649 1.348 7.584.074.127.152.261.229.386 1.882 2.936 5.864 4.167 40.659 14.736 34.78 10.587 100.374 30.5 137.46 41.692 37.083 11.19 45.667 13.638 52.302 15.216 6.644 1.595 11.351 2.305 15.839 2.665 4.489.349 8.788.349 43.164-7.878 34.376-8.21 98.84-24.662 131.637-33.197 32.797-8.533 33.926-9.141 34.518-11.831.06-.259.11-.533.162-.832.018-.1.03-.198.048-.299.403-2.768.491-7.072.563-11.107-.192.854-1.8 1.883-35.552 10.176-34.271 8.434-101.688 24.374-137.192 32.274-35.508 7.924-39.085 7.82-43.532 6.953-4.446-.869-9.761-2.504-49.75-14.203-39.997-11.688-114.684-33.45-152.477-44.54-37.807-11.075-38.72-11.5-39.285-12.104-.063 1.453-.135 2.904-.141 4.309z"/>
    <defs>
      <path id="c" d="M331.201 31.303c-1.661.678-3.221 1.722-4.458 3.326-1.252 1.604-2.193 3.797-3.531 8.665-1.354 4.884-3.12 12.461-11.169 48.377-8.047 35.914-22.363 100.177-29.836 133.607-7.473 33.411-8.108 36.019-8.357 37.931-.264 1.927-.163 3.177 42.297 14.636 42.465 11.476 127.269 33.181 170.658 44.229 43.403 11.05 45.37 11.477 47.39 11.258a9.952 9.952 0 0 0 5.866-2.694c1.767-1.666 3.226-4.147 6.08-14.844 2.854-10.698 7.106-29.592 15.607-68.156 8.521-38.559 21.29-96.79 28.559-130.278 7.271-33.47 9.034-42.195 9.917-47.801.868-5.605.868-8.092.146-10.372-.721-2.296-2.178-4.371-4.044-5.915-1.87-1.559-4.149-2.604-47.555-6.386-43.387-3.795-127.884-10.329-171.02-13.448-27.381-1.979-38.087-2.577-42.681-2.577-2.641-.002-3.262.196-3.869.442"/>
    </defs>
    <clipPath id="d">
      <use xlink:href="#c" overflow="visible"/>
    </clipPath>
    <linearGradient id="e" gradientUnits="userSpaceOnUse" y1="402.51" x2="1" y2="402.51" gradientTransform="rotate(102.478 46184.735 57444.304) scale(284.4247)">
      <stop offset="0" stop-color="#ecebea"/>
      <stop offset=".006" stop-color="#ecebea"/>
      <stop offset=".097" stop-color="#8f9496"/>
      <stop offset=".169" stop-color="#afb0b2"/>
      <stop offset=".291" stop-color="#ecebea"/>
      <stop offset=".455" stop-color="#2c2f31"/>
      <stop offset=".758" stop-color="#ecebea"/>
      <stop offset=".909" stop-color="#75797b"/>
      <stop offset="1" stop-color="#ecebea"/>
    </linearGradient>
    <path clip-path="url(#d)" fill="url(#e)" d="M288.876-38.234l-79.148 357.651 376.074 83.226L664.95 44.991z"/>
    <defs>
      <path id="f" d="M0 0h759.686v402.52H0z"/>
    </defs>
    <clipPath id="g">
      <use xlink:href="#f" overflow="visible"/>
    </clipPath>
    <path clip-path="url(#g)" fill="#FFF" d="M378.691 35.595c42.46 3.069 125.619 9.5 168.318 13.235 42.717 3.721 44.959 4.749 46.799 6.285 1.838 1.52 3.274 3.562 3.981 5.82.711 2.244.711 4.692-.145 10.208-.869 5.517-2.605 14.103-9.759 47.047-7.154 32.954-19.721 90.267-28.105 128.22-8.369 37.948-12.553 56.539-15.362 67.071-2.81 10.522-4.244 12.975-5.98 14.61a9.807 9.807 0 0 1-5.777 2.648c-1.983.215-3.926-.205-46.64-11.076-42.703-10.876-126.162-32.231-167.954-43.527-41.789-11.278-41.89-12.514-41.629-14.405.246-1.884.868-4.45 8.224-37.331 7.357-32.899 21.444-96.148 29.366-131.495 7.918-35.344 9.657-42.801 10.988-47.608 1.321-4.795 2.245-6.95 3.477-8.53 1.217-1.579 2.75-2.606 4.387-3.272 1.639-.666 3.374-.969 45.811 2.1"/>
    <path clip-path="url(#g)" fill="none" stroke="#000" stroke-width=".661" stroke-miterlimit="10" d="M378.691 35.595c42.46 3.069 125.619 9.5 168.318 13.235 42.717 3.721 44.959 4.749 46.799 6.285 1.838 1.52 3.274 3.562 3.981 5.82.711 2.244.711 4.692-.145 10.208-.869 5.517-2.605 14.103-9.759 47.047-7.154 32.954-19.721 90.267-28.105 128.22-8.369 37.948-12.553 56.539-15.362 67.071-2.81 10.522-4.244 12.975-5.98 14.61a9.807 9.807 0 0 1-5.777 2.648c-1.983.215-3.926-.205-46.64-11.076-42.703-10.876-126.162-32.231-167.954-43.527-41.789-11.278-41.89-12.514-41.629-14.405.246-1.884.868-4.45 8.224-37.331 7.357-32.899 21.444-96.148 29.366-131.495 7.918-35.344 9.657-42.801 10.988-47.608 1.321-4.795 2.245-6.95 3.477-8.53 1.217-1.579 2.75-2.606 4.387-3.272 1.639-.666 3.374-.969 45.811 2.1z"/>
    <path clip-path="url(#g)" d="M318.067 276.139c38.279 10.342 111.521 29.132 156.371 40.575 4.12 1.045 7.994 2.039 11.583 2.95 42.714 10.87 44.656 11.291 46.642 11.074a9.788 9.788 0 0 0 5.775-2.648c1.735-1.632 3.173-4.084 5.978-14.61 2.811-10.531 6.995-29.121 15.367-67.07 8.384-37.955 20.951-95.264 28.102-128.222 7.155-32.941 8.892-41.526 9.763-47.044.852-5.515.852-7.963.142-10.207-.705-2.26-2.143-4.305-3.979-5.823-1.84-1.535-4.084-2.563-46.801-6.285-22.711-1.985-56.865-4.734-90.248-7.336-29.396-2.286-58.188-4.459-78.07-5.899-42.435-3.07-44.171-2.766-45.811-2.096-1.639.664-3.174 1.69-4.387 3.271-1.235 1.578-2.155 3.733-3.473 8.531-1.334 4.806-3.071 12.262-10.992 47.605-7.923 35.346-22.008 98.596-29.367 131.494-7.352 32.885-7.979 35.449-8.222 37.333-.26 1.893-.162 3.126 41.627 14.407"/>
    <path clip-path="url(#g)" fill="none" stroke="#000" stroke-width=".661" stroke-miterlimit="10" d="M318.067 276.139c38.279 10.342 111.521 29.132 156.371 40.575 4.12 1.045 7.994 2.039 11.583 2.95 42.714 10.87 44.656 11.291 46.642 11.074a9.788 9.788 0 0 0 5.775-2.648c1.735-1.632 3.173-4.084 5.978-14.61 2.811-10.531 6.995-29.121 15.367-67.07 8.384-37.955 20.951-95.264 28.102-128.222 7.155-32.941 8.892-41.526 9.763-47.044.852-5.515.852-7.963.142-10.207-.705-2.26-2.143-4.305-3.979-5.823-1.84-1.535-4.084-2.563-46.801-6.285-22.711-1.985-56.865-4.734-90.248-7.336-29.396-2.286-58.188-4.459-78.07-5.899-42.435-3.07-44.171-2.766-45.811-2.096-1.639.664-3.174 1.69-4.387 3.271-1.235 1.578-2.155 3.733-3.473 8.531-1.334 4.806-3.071 12.262-10.992 47.605-7.923 35.346-22.008 98.596-29.367 131.494-7.352 32.885-7.979 35.449-8.222 37.333-.26 1.893-.162 3.126 41.627 14.407z"/>
    <path clip-path="url(#g)" fill="#FFF" d="M290.525 247.987c.056 0 .161 0 7.876-34.071a56926.296 56926.296 0 0 0 19.657-87.313 21289.11 21289.11 0 0 0 10.943-48.971c7.555-34.069 7.356-34.069 7.497-33.971.161.103.671.322 41.547 3.883 40.863 3.573 122.079 10.526 162.999 14.564 40.904 4.039 41.526 5.153 41.671 6.124.161.969-.145 1.798-.809 4.506-.669 2.705-1.679 7.293-10.426 45.512-6.113 26.755-16.01 69.981-24.218 105.822a279813.32 279813.32 0 0 1-9.19 40.122c-8.218 35.906-8.218 35.906-8.165 35.948.042.061.147.161-39.744-8.525-39.894-8.687-119.794-26.156-159.73-34.883-39.95-8.747-39.95-8.747-39.908-8.747"/>
    <path clip-path="url(#g)" fill="#FFF" d="M295.214 245.544c.055 0 .156 0 7.623-32.978a52332.901 52332.901 0 0 0 19.026-84.512c4.064-18.116 7.86-35.062 10.592-47.399 7.312-32.975 7.12-32.975 7.256-32.88.157.101.65.311 40.214 3.757 39.552 3.459 118.163 10.19 157.769 14.098 39.593 3.91 40.194 4.988 40.334 5.927.156.938-.14 1.741-.782 4.362-.647 2.619-1.625 7.059-10.092 44.051a287629.075 287629.075 0 0 1-32.335 141.26c-7.957 34.755-7.957 34.755-7.903 34.796.04.058.141.156-38.47-8.251-38.613-8.408-115.949-25.317-154.604-33.765-38.669-8.466-38.669-8.466-38.628-8.466M72.171 303.281c-.01 2.907.246 5.596 1.348 7.588-1.052-1.94-1.336-4.682-1.348-7.588"/>
    <path clip-path="url(#g)" fill="none" stroke="#000" stroke-width=".661" stroke-miterlimit="10" d="M72.171 303.281c-.01 2.907.246 5.596 1.348 7.588-1.052-1.94-1.336-4.682-1.348-7.588z"/>
    <path clip-path="url(#g)" fill="#FFF" d="M362.245 333.709c-37.126-9.297-110.076-28.19-146.856-38.11-36.778-9.907-37.386-10.831-23.138-14.191 14.248-3.376 43.368-9.198 58.745-12.008 15.378-2.808 17.015-2.602 54.967 6.07 37.953 8.687 112.22 25.844 149.255 34.537 37.043 8.684 36.839 8.887 36.172 9.498-.665.623-1.795 1.637-14.968 5.166-13.178 3.518-38.417 9.545-52.157 12.771-13.74 3.217-15.988 3.623-17.765 3.981-1.796.349-3.129.667-4.448.974-1.331.305-2.661.607-39.807-8.688"/>
    <path clip-path="url(#g)" fill="none" stroke="#000" stroke-width=".661" stroke-miterlimit="10" d="M362.245 333.709c-37.126-9.297-110.076-28.19-146.856-38.11-36.778-9.907-37.386-10.831-23.138-14.191 14.248-3.376 43.368-9.198 58.745-12.008 15.378-2.808 17.015-2.602 54.967 6.07 37.953 8.687 112.22 25.844 149.255 34.537 37.043 8.684 36.839 8.887 36.172 9.498-.665.623-1.795 1.637-14.968 5.166-13.178 3.518-38.417 9.545-52.157 12.771-13.74 3.217-15.988 3.623-17.765 3.981-1.796.349-3.129.667-4.448.974-1.331.305-2.661.607-39.807-8.688zM317.087 126.328c.322.091.642.183.971.275M547.263 224.072c.303.173.61.35.913.518"/>
    <defs>
      <path id="h" d="M72.171 303.281c.012 2.906.296 5.648 1.348 7.587.074.126.152.256.229.383 1.882 2.941 5.864 4.164 40.659 14.739 34.78 10.587 100.374 30.498 137.46 41.688 37.083 11.193 45.667 13.636 52.301 15.222 6.644 1.59 11.351 2.302 15.84 2.663 4.489.348 8.788.348 43.164-7.883 34.376-8.206 98.839-24.657 131.636-33.197 32.798-8.53 33.929-9.142 34.519-11.831.059-.254.111-.528.162-.832.018-.094.03-.197.048-.297.404-2.763.491-7.073.563-11.109-.192.856-1.8 1.884-35.552 10.183-34.271 8.43-101.688 24.374-137.192 32.271-35.509 7.925-39.085 7.817-43.531 6.953-4.447-.868-9.763-2.502-49.752-14.207-39.996-11.687-114.684-33.446-152.476-44.538-37.808-11.078-38.72-11.494-39.286-12.104-.062 1.451-.135 2.905-.14 4.309"/>
    </defs>
    <clipPath id="i">
      <use xlink:href="#h" overflow="visible"/>
    </clipPath>
    <linearGradient id="j" gradientUnits="userSpaceOnUse" y1="402.528" x2="1" y2="402.528" gradientTransform="rotate(-178 -1346.054 92611.619) scale(459.3023)">
      <stop offset="0" stop-color="#a7a9ab"/>
      <stop offset=".012" stop-color="#a7a9ab"/>
      <stop offset=".085" stop-color="#ecebea"/>
      <stop offset=".345" stop-color="#ecebea"/>
      <stop offset=".442" stop-color="#a7a9ab"/>
      <stop offset=".521" stop-color="#ecebea"/>
      <stop offset=".824" stop-color="#ecebea"/>
      <stop offset=".982" stop-color="#a7a9ab"/>
      <stop offset="1" stop-color="#a7a9ab"/>
    </linearGradient>
    <path clip-path="url(#i)" fill="url(#j)" d="M533.132 299.077L72.729 283l-3.59 102.805 460.403 16.077z"/>
    <defs>
      <path id="k" d="M235.876 266.436c-32.632 5.775-95.373 17.117-127.809 23.093-32.437 5.967-34.577 6.589-35.548 7.3-.958.694-.773 1.513-.228 2.118.004.013.016.015.02.024.566.61 1.478 1.026 39.286 12.104 37.792 11.092 112.48 32.852 152.476 44.538 39.989 11.705 45.305 13.339 49.752 14.207 4.446.864 8.022.972 43.531-6.953 35.504-7.897 102.921-23.842 137.192-32.271 33.752-8.299 35.359-9.326 35.552-10.183.004-.005 0-.005 0-.005a.09.09 0 0 0 .011-.036.768.768 0 0 0-.007-.334.662.662 0 0 0-.055-.184c-.344-.713-1.888-1.538-7.047-3.057-6.427-1.885-18.489-4.856-60.018-14.356-41.531-9.495-112.525-25.54-148.998-33.663-36.476-8.124-38.421-8.329-40.665-8.329-2.254.001-4.806.206-37.445 5.987"/>
    </defs>
    <clipPath id="l">
      <use xlink:href="#k" overflow="visible"/>
    </clipPath>
    <linearGradient id="m" gradientUnits="userSpaceOnUse" y1="402.507" x2="1" y2="402.507" gradientTransform="scale(-459.7592) rotate(-13.08 -1758.5 205.867)">
      <stop offset="0" stop-color="#8f9496"/>
      <stop offset=".186" stop-color="#afb0b2"/>
      <stop offset=".503" stop-color="#ecebea"/>
      <stop offset="1" stop-color="#75797b"/>
    </linearGradient>
    <path clip-path="url(#l)" fill="url(#m)" d="M506.644 159.359L47.236 266.102l47.813 205.781L554.457 365.14z"/>
    <defs>
      <path id="n" d="M250.997 269.4c-15.378 2.811-44.498 8.632-58.745 12.008-14.248 3.36-13.642 4.284 23.137 14.191 36.78 9.92 109.73 28.813 146.856 38.111 37.145 9.295 38.475 8.991 39.807 8.687 1.319-.306 2.652-.624 4.448-.973 1.776-.358 4.024-.766 17.764-3.981 13.741-3.227 38.98-9.255 52.158-12.771 13.173-3.53 14.304-4.543 14.967-5.166.668-.612.871-.815-36.171-9.499-37.036-8.693-111.302-25.852-149.255-34.536-24.554-5.611-33.906-7.678-41.614-7.678-4.206 0-7.924.616-13.352 1.607"/>
    </defs>
    <clipPath id="o">
      <use xlink:href="#n" overflow="visible"/>
    </clipPath>
    <linearGradient id="p" gradientUnits="userSpaceOnUse" x1=".001" y1="402.519" x2="1.001" y2="402.519" gradientTransform="rotate(180 245.915 62127.195) scale(307.9331)">
      <stop offset="0"/>
      <stop offset=".03" stop-color="#000001"/>
      <stop offset=".503" stop-color="#454949"/>
      <stop offset="1"/>
    </linearGradient>
    <path clip-path="url(#o)" fill="url(#p)" d="M178.004 267.793H492.26v75.212H178.004z"/>
    <defs>
      <path id="q" d="M0 0h759.686v402.52H0z"/>
    </defs>
    <clipPath id="r">
      <use xlink:href="#q" overflow="visible"/>
    </clipPath>
    <path clip-path="url(#r)" fill="none" stroke="#000" stroke-width=".661" stroke-miterlimit="10" d="M362.245 333.709c-37.126-9.297-110.076-28.19-146.856-38.11-36.778-9.907-37.386-10.831-23.138-14.191 14.248-3.376 43.368-9.198 58.745-12.008 15.378-2.808 17.015-2.602 54.967 6.07 37.953 8.687 112.22 25.844 149.255 34.537 37.043 8.684 36.839 8.887 36.172 9.498-.665.623-1.795 1.637-14.968 5.166-13.178 3.518-38.417 9.545-52.157 12.771-13.74 3.217-15.988 3.623-17.765 3.981-1.796.349-3.129.667-4.448.974-1.331.305-2.661.607-39.807-8.688z"/>
    <g>
      <defs>
        <path id="s" d="M160.023 314.157l83.476 23.33 64.291-10.365-78.809-20.74z"/>
      </defs>
      <clipPath id="t">
        <use xlink:href="#s" overflow="visible"/>
      </clipPath>
      <linearGradient id="u" gradientUnits="userSpaceOnUse" x1="-.002" y1="402.521" x2=".999" y2="402.521" gradientTransform="scale(-148.444) rotate(2 11591.82 140.795)">
        <stop offset="0" stop-color="#ecebea"/>
        <stop offset=".442" stop-color="#a7a9ab"/>
        <stop offset="1" stop-color="#ecebea"/>
      </linearGradient>
      <path clip-path="url(#t)" fill="url(#u)" d="M308.875 306.419l-148.672-5.191-1.265 36.221 148.672 5.192z"/>
    </g>
    <g>
      <defs>
        <path id="v" d="M511.498 332.54l-.375 3.912 11.025-2.752.371-3.914z"/>
      </defs>
      <clipPath id="w">
        <use xlink:href="#v" overflow="visible"/>
      </clipPath>
      <linearGradient id="x" gradientUnits="userSpaceOnUse" x1="-.01" y1="402.508" x2=".99" y2="402.508" gradientTransform="rotate(180 261.202 2460.157) scale(11.3965)">
        <stop offset="0" stop-color="#ecebea"/>
        <stop offset=".442" stop-color="#2c2f31"/>
        <stop offset="1"/>
      </linearGradient>
      <path clip-path="url(#w)" fill="url(#x)" d="M511.123 329.786h11.396v6.666h-11.396z"/>
    </g>
    <g>
      <defs>
        <path id="y" d="M499.586 333.244l.693 8.178 8.176-2.038-.693-8.183z"/>
      </defs>
      <clipPath id="z">
        <use xlink:href="#y" overflow="visible"/>
      </clipPath>
      <linearGradient id="A" gradientUnits="userSpaceOnUse" x1=".036" y1="402.559" x2="1.036" y2="402.559" gradientTransform="rotate(180 254.387 1953.322) scale(8.8691)">
        <stop offset="0" stop-color="#ecebea"/>
        <stop offset=".442" stop-color="#2c2f31"/>
        <stop offset="1"/>
      </linearGradient>
      <path clip-path="url(#z)" fill="url(#A)" d="M499.586 331.201h8.869v10.222h-8.869z"/>
    </g>
    <g>
      <defs>
        <path id="B" d="M487.494 336.26l.691 8.175 8.18-2.037-.689-8.177z"/>
      </defs>
      <clipPath id="C">
        <use xlink:href="#B" overflow="visible"/>
      </clipPath>
      <linearGradient id="D" gradientUnits="userSpaceOnUse" x1="-.005" y1="402.516" x2=".995" y2="402.516" gradientTransform="rotate(180 248.161 1955.04) scale(8.8711)">
        <stop offset="0" stop-color="#ecebea"/>
        <stop offset=".442" stop-color="#2c2f31"/>
        <stop offset="1"/>
      </linearGradient>
      <path clip-path="url(#C)" fill="url(#D)" d="M487.494 334.221h8.871v10.214h-8.871z"/>
    </g>
    <g>
      <defs>
        <path id="E" d="M474.695 340.962l-.107 4.982 9.246-2.307.104-4.983z"/>
      </defs>
      <clipPath id="F">
        <use xlink:href="#E" overflow="visible"/>
      </clipPath>
      <linearGradient id="G" gradientUnits="userSpaceOnUse" x1=".009" y1="402.529" x2="1.008" y2="402.529" gradientTransform="rotate(180 242.006 2052.891) scale(9.3496)">
        <stop offset="0" stop-color="#ecebea"/>
        <stop offset=".442" stop-color="#2c2f31"/>
        <stop offset="1"/>
      </linearGradient>
      <path clip-path="url(#F)" fill="url(#G)" d="M474.588 338.654h9.349v7.29h-9.349z"/>
    </g>
    <g>
      <defs>
        <path id="H" d="M461.893 344.157l-.11 4.978 8.538-2.129.105-4.979z"/>
      </defs>
      <clipPath id="I">
        <use xlink:href="#H" overflow="visible"/>
      </clipPath>
      <linearGradient id="J" gradientUnits="userSpaceOnUse" x1="-.041" y1="402.476" x2=".959" y2="402.476" gradientTransform="rotate(180 235.038 1912.214) scale(8.6436)">
        <stop offset="0" stop-color="#ecebea"/>
        <stop offset=".442" stop-color="#2c2f31"/>
        <stop offset="1"/>
      </linearGradient>
      <path clip-path="url(#I)" fill="url(#J)" d="M461.783 342.027h8.643v7.108h-8.643z"/>
    </g>
    <g>
      <defs>
        <path id="K" d="M442.781 350.812l-.999 1.426 16.007-3.993.991-1.425z"/>
      </defs>
      <clipPath id="L">
        <use xlink:href="#K" overflow="visible"/>
      </clipPath>
      <linearGradient id="M" gradientUnits="userSpaceOnUse" x1="-.014" y1="402.506" x2=".986" y2="402.506" gradientTransform="rotate(180 229.277 3595.48) scale(16.9971)">
        <stop offset="0" stop-color="#ecebea"/>
        <stop offset=".442" stop-color="#2c2f31"/>
        <stop offset="1"/>
      </linearGradient>
      <path clip-path="url(#L)" fill="url(#M)" d="M441.782 346.82h16.998v5.418h-16.998z"/>
    </g>
    <g>
      <defs>
        <path id="N" d="M436.467 351.256l-.463 3.556 2.846-.711.464-3.556z"/>
      </defs>
      <clipPath id="O">
        <use xlink:href="#N" overflow="visible"/>
      </clipPath>
      <linearGradient id="P" gradientUnits="userSpaceOnUse" x1=".11" y1="402.638" x2="1.11" y2="402.638" gradientTransform="rotate(180 219.84 842.806) scale(3.3105)">
        <stop offset="0" stop-color="#ecebea"/>
        <stop offset=".442" stop-color="#2c2f31"/>
        <stop offset="1"/>
      </linearGradient>
      <path clip-path="url(#O)" fill="url(#P)" d="M436.004 350.545h3.311v4.267h-3.311z"/>
    </g>
    <g>
      <defs>
        <path id="Q" d="M0 0h759.686v402.52H0z"/>
      </defs>
      <clipPath id="R">
        <use xlink:href="#Q" overflow="visible"/>
      </clipPath>
      <path clip-path="url(#R)" fill="#0C0B15" d="M467.244 48.622a1.875 1.875 0 0 1-2.021 1.724l-17.94-1.396a1.876 1.876 0 0 1 .29-3.739l17.946 1.397a1.88 1.88 0 0 1 1.725 2.014"/>
      <path clip-path="url(#R)" fill="none" stroke="#B9BBBD" stroke-width=".541" stroke-miterlimit="10" d="M467.244 48.622a1.875 1.875 0 0 1-2.021 1.724l-17.94-1.396a1.876 1.876 0 0 1 .29-3.739l17.946 1.397a1.88 1.88 0 0 1 1.725 2.014z"/>
    </g>
    <g>
      <defs>
        <path id="S" d="M472.09 49.177a1.877 1.877 0 0 0 3.742.29 1.877 1.877 0 0 0-3.742-.29"/>
      </defs>
      <clipPath id="T">
        <use xlink:href="#S" overflow="visible"/>
      </clipPath>
      <radialGradient id="U" cx=".145" cy="402.719" r="1" gradientTransform="rotate(-175.546 223.565 388.817) scale(1.8542)" gradientUnits="userSpaceOnUse">
        <stop offset="0" stop-color="#0c0b15"/>
        <stop offset=".278" stop-color="#0c0b15"/>
        <stop offset="1" stop-color="#b9bbbd"/>
      </radialGradient>
      <path clip-path="url(#T)" fill="url(#U)" d="M476.206 47.472l-4.172-.325-.319 4.103 4.172.325z"/>
    </g>
    <g>
      <defs>
        <path id="V" d="M0 0h759.686v402.52H0z"/>
      </defs>
      <clipPath id="W">
        <use xlink:href="#V" overflow="visible"/>
      </clipPath>
      <path clip-path="url(#W)" fill="none" stroke="#D1D3D4" stroke-width=".5" stroke-miterlimit="10" d="M472.09 49.178a1.88 1.88 0 0 0 1.722 2.015 1.879 1.879 0 0 0 2.021-1.725 1.878 1.878 0 0 0-3.743-.29z"/>
      <path clip-path="url(#W)" fill="#FFF" d="M392.357 95.864c-2.066 13.113-14.37 22.065-27.483 20-13.107-2.066-22.062-14.369-19.996-27.481 2.066-13.109 14.368-22.063 27.482-19.997 13.108 2.067 22.064 14.37 19.997 27.478"/>
      <path clip-path="url(#W)" fill="none" stroke="#D7BFD3" stroke-width="5" stroke-miterlimit="10" d="M392.357 95.864c-2.066 13.113-14.37 22.065-27.483 20-13.107-2.066-22.062-14.369-19.996-27.481 2.066-13.109 14.368-22.063 27.482-19.997 13.108 2.067 22.064 14.37 19.997 27.478z"/>
      <g clip-path="url(#W)" enable-background="new">
        <defs>
          <path id="X" d="M373.429 82.026h175.449V268.02H373.429z"/>
        </defs>
        <clipPath id="Y">
          <use xlink:href="#X" overflow="visible"/>
        </clipPath>
        <g clip-path="url(#Y)">
          <defs>
            <path id="Z" d="M373.429 241.604l26.496-159.578 148.953 11.21-22.692 174.784z"/>
          </defs>
          <clipPath id="aa">
            <use xlink:href="#Z" overflow="visible"/>
          </clipPath>
          <path clip-path="url(#aa)" fill="#D7BFD3" d="M413.136 83.02l-6.503 25.847 135.252 17.623 6.316-28.045zM386.665 187.912l-1.344 5.354 135.813 24.971 1.319-5.835z"/>
          <path clip-path="url(#aa)" fill="#D1D3D4" d="M475.637 135.702l-1.304 5.471 62.23 8.96 1.276-5.68zM472.194 150.212l-1.312 5.511 62.282 9.513 1.284-5.722zM468.723 164.811l-1.31 5.533 62.334 10.072 1.291-5.746zM465.243 179.481l-1.318 5.573 62.385 10.638 1.298-5.787zM402.471 125.409l-1.314 5.23 56.949 8.199 1.308-5.418zM398.982 139.274l-1.32 5.266 56.982 8.704 1.317-5.456zM395.477 153.22l-1.335 5.284 57.023 9.214 1.322-5.477zM391.952 167.232l-1.343 5.32 57.056 9.73 1.331-5.516zM381.103 209.367l-6.822 27.104 35.925 7.612 6.788-27.743zM427.909 218.456l-6.776 27.936 38.059 8.064 6.731-28.624zM476.711 227.935l-6.714 28.808 40.354 8.54 6.642-29.531z"/>
        </g>
      </g>
      <path clip-path="url(#W)" fill="#D6BFD3" d="M353.624 73.091l7.836-3.592 4.755 32.382 18.425-28.699 5.732 6.682-22.023 34.345-7.467-1.327-7.258-39.791z"/>
    </g>
    <g>
      <defs>
        <path id="ab" d="M134 357.794L12.333 369.187l71.2 19.305 90.278-16.078z"/>
      </defs>
      <clipPath id="ad">
        <use xlink:href="#ab" overflow="visible"/>
      </clipPath>
      <defs>
        <filter id="ac" filterUnits="userSpaceOnUse" x="2.236" y="343.128" width="174.241" height="60.029">
          <feColorMatrix values="1 0 0 0 0 0 1 0 0 0 0 0 1 0 0 0 0 0 1 0"/>
        </filter>
      </defs>
      <mask maskUnits="userSpaceOnUse" x="2.236" y="343.128" width="174.241" height="60.029" id="af">
        <g filter="url(#ac)">
          <linearGradient id="ae" gradientUnits="userSpaceOnUse" x1=".017" y1="402.516" x2="1.017" y2="402.516" gradientTransform="scale(26.6015 -26.6015) rotate(-85 -225.378 192.664)">
            <stop offset="0"/>
            <stop offset=".382"/>
            <stop offset=".403" stop-color="#020202"/>
            <stop offset=".411" stop-color="#090909"/>
            <stop offset=".416" stop-color="#141414"/>
            <stop offset=".42" stop-color="#252525"/>
            <stop offset=".424" stop-color="#3b3b3b"/>
            <stop offset=".427" stop-color="#575757"/>
            <stop offset=".43" stop-color="#777"/>
            <stop offset=".433" stop-color="#9d9d9d"/>
            <stop offset=".436" stop-color="#c8c8c8"/>
            <stop offset=".438" stop-color="#f6f6f6"/>
            <stop offset=".438" stop-color="#fff"/>
            <stop offset="1" stop-color="#fff"/>
          </linearGradient>
          <path clip-path="url(#ad)" fill="url(#ae)" d="M172.528 343.128l3.949 45.131L6.184 403.158l-3.948-45.131z"/>
        </g>
      </mask>
      <linearGradient id="ag" gradientUnits="userSpaceOnUse" x1=".017" y1="402.516" x2="1.017" y2="402.516" gradientTransform="scale(26.6015 -26.6015) rotate(-85 -225.378 192.664)">
        <stop offset="0" stop-color="#48484a"/>
        <stop offset=".382" stop-color="#48484a"/>
        <stop offset=".414" stop-color="#464648"/>
        <stop offset=".425" stop-color="#403f41"/>
        <stop offset=".433" stop-color="#282829"/>
        <stop offset=".438"/>
        <stop offset="1"/>
      </linearGradient>
      <path clip-path="url(#ad)" mask="url(#af)" fill="url(#ag)" d="M172.528 343.128l3.949 45.131L6.184 403.158l-3.948-45.131z"/>
    </g>
    <g>
      <defs>
        <path id="ah" d="M0 0h759.686v402.52H0z"/>
      </defs>
      <clipPath id="ai">
        <use xlink:href="#ah" overflow="visible"/>
      </clipPath>
      <path clip-path="url(#ai)" fill-rule="evenodd" clip-rule="evenodd" fill="#010101" d="M96.913 388.107c-3.76.723-7.662.75-12.048.412-3.323-.26-6.533-1.352-9.217-3.299-5.635-4.496-8.995-10.65-10.775-17.564l-1.208-5.153-.94-3.94-.935-3.941-.937-3.936-.936-3.936-.936-3.934-.936-3.936-.936-3.928-.933-3.928-.933-3.924-.936-3.926-.931-3.92-.935-3.92-.931-3.917-.93-3.916-.934-3.913-.93-3.912-.93-3.904-.93-3.908-.928-3.906-.928-3.902-.93-3.898-.929-3.9-.924-3.896-.928-3.896-.926-3.891-.925-3.889-.925-3.891-.926-3.885-.925-3.885-.92-3.883-.927-3.879-.914-3.848-.916-3.851-.914-3.845-.916-3.842-.912-3.844-.915-3.843-.913-3.837-.912-3.838-.915-3.835-.911-3.829-.91-3.832-.911-3.828-.909-3.827-.911-3.825-.91-3.822-.909-3.82-.909-3.818-.907-3.819-.907-3.813-.905-3.816-.909-3.809-.906-3.809-.905-3.805-.906-3.805-.904-3.803-.905-3.799-.906-3.798-.902-3.797-.903-3.794-.902-3.793-.902-3.791-.9-3.787-.259-1.187-.212-1.172-.16-1.153-.117-1.139-.068-1.117-.023-1.09.022-1.074c.229-3.604 1.029-6.825 2.984-9.888 3.67-5.039 11.902-7.667 17.371-10.093-4.563 2.279-8.557 7.299-9.532 12.151l-.154 1.017-.112 1.045-.068 1.07-.022 1.095.022 1.118.069 1.14.119 1.159.167 1.179.213 1.196.266 1.21.917 3.866.921 3.868.92 3.869.923 3.873.921 3.872.922 3.876.923 3.877.925 3.882.923 3.883.924 3.883.925 3.887.924 3.888.927 3.892.926 3.891.924 3.895.928 3.896.927 3.898.929 3.9.93 3.904.927 3.906.928 3.904.93 3.909.93 3.91.931 3.914.932 3.916.932 3.914.931 3.922.936 3.918.931 3.922.935 3.927.933 3.927.933 3.928.943 3.959.943 3.96.942 3.965.944 3.962.945 3.971.944 3.97.947 3.972.943 3.975.948 3.973.947 3.979.946 3.979.948 3.982.946 3.984.95 3.986.949 3.99.95 3.99.949 3.994.951 3.994.951 3.996.952 4 .952 4 .953 4.002.955 4.006.951 4.008.955 4.012.956 4.012.955 4.014.955 4.016.955 4.018.956 4.021.957 4.023.956 4.025.328 1.27.368 1.246.407 1.221.447 1.189.485 1.164.518 1.133.554 1.1.586 1.065c3.602 6.025 9.79 10.856 16.913 11.756"/>
    </g>
    <g>
      <defs>
        <path id="aj" d="M13.2 96.768l-.696.413-.665.462-.634.511-.601.555-.568.6-.533.646-.499.686-.468.726-.427.767-.388.8-.354.842-.316.873-.277.905-.234.939-.193.968-.153.996-.109 1.023-.068 1.048-.022 1.075.022 1.095.069 1.118.117 1.137.159 1.153.212 1.173.259 1.186.9 3.787.906 3.791.899 3.791.906 3.796.9 3.797.905 3.797.905 3.8.904 3.804.904 3.804.907 3.805.908 3.808.906 3.812.906 3.815.906 3.813.908 3.815.909 3.821.912 3.821.906 3.821.912 3.827.909 3.826.911 3.827.912 3.83.91 3.834.914 3.834.913 3.836.913 3.837.912 3.842.915 3.842.915 3.845.915 3.846.915 3.848.916 3.852.922 3.878.925 3.88.924 3.889.923 3.883.926 3.889.926 3.889.927 3.895.926 3.894.926 3.896.929 3.896.929 3.903.927 3.902.929 3.903.928 3.907.932 3.908.931 3.913.932 3.911.932 3.917.932 3.917.933 3.92.931 3.92.934 3.922.934 3.928.933 3.926.936 3.929.935 3.935.937 3.932.936 3.938.936 3.934.936 3.943.94 3.939 1.207 5.153c1.782 6.913 5.139 13.069 10.778 17.565 2.681 1.947 5.332 3.242 8.688 3.638 4.662.549 9.409.262 14.194-.249l-3.273-.123-.911-.176-.909-.238-.904-.291-.896-.35-.892-.406-.876-.455-.87-.51-.855-.562-.842-.608-.826-.662-.808-.707-.79-.752-.77-.791-.748-.843-.724-.88-.701-.918-.675-.956-.645-.997-.617-1.035-.584-1.063-.552-1.101-.522-1.133-.482-1.16-.447-1.196-.408-1.216-.369-1.248-.326-1.27-.957-4.025-.959-4.021-.956-4.021-.955-4.019-.954-4.017-.956-4.016-.955-4.012-.952-4.009-.955-4.007-.953-4.004-.952-4.006-.953-4.002-.953-4-.951-3.996-.952-3.996-.948-3.99-.948-3.991-.952-3.987-.946-3.986-.949-3.984-.948-3.984-.947-3.979-.947-3.978-.948-3.975-.941-3.978-.95-3.969-.943-3.972-.941-3.967-.946-3.965-.944-3.964-.941-3.961-.944-3.959-.933-3.928-.933-3.929-.935-3.925-.931-3.92-.935-3.92-.931-3.922-.931-3.914-.932-3.917-.931-3.909-.932-3.914-.931-3.911-.927-3.904-.927-3.903-.93-3.904-.928-3.901-.926-3.897-.93-3.895-.924-3.897-.926-3.891-.928-3.892-.925-3.888-.921-3.888-.926-3.882-.925-3.884-.923-3.88-.922-3.877-.923-3.876-.92-3.874-.924-3.871-.918-3.87-.923-3.868-.918-3.864-.266-1.211-.213-1.198-.165-1.175-.12-1.162-.069-1.14-.022-1.117.021-1.095.069-1.072.113-1.045.153-1.015.199-.989.241-.957.282-.925.319-.891.358-.856.403-.819.437-.782.474-.739.507-.702.548-.657.58-.612.61-.567.647-.522.679-.47 1.755-.926c-3.372 1.197-9.738 4.018-11.679 5.482"/>
      </defs>
      <clipPath id="ak">
        <use xlink:href="#aj" overflow="visible"/>
      </clipPath>
      <linearGradient id="al" gradientUnits="userSpaceOnUse" x1="-.001" y1="402.534" x2=".999" y2="402.534" gradientTransform="scale(304.6278 -304.6278) rotate(-73.848 -268.019 201.086)">
        <stop offset="0" stop-color="#010101"/>
        <stop offset=".992" stop-color="#010101"/>
        <stop offset="1" stop-color="#010101"/>
      </linearGradient>
      <path clip-path="url(#ak)" fill="url(#al)" d="M92.38 66.268l86.749 299.533-165.888 48.044-86.749-299.533z"/>
    </g>
    <g>
      <defs>
        <path id="am" d="M17.339 113.93c9.809 41.219 19.699 82.8 29.669 124.714 10.047 42.217 20.179 84.797 30.396 127.738 3.255 13.687 13.869 23.314 23.504 21.469 13.382-2.564 26.546-5.088 39.471-7.563 12.71-2.438 25.202-4.828 37.501-7.185 8.556-1.637 12.926-13.291 9.767-25.971-9.906-39.807-19.74-79.302-29.495-118.487-9.689-38.908-19.302-77.535-28.847-115.881-3.006-12.063-12.553-21.994-21.291-22.035l-38.225-.171c-13.165-.061-26.566-.12-40.183-.181l-.059-.001c-9.753.001-15.296 10.585-12.208 23.554"/>
      </defs>
      <clipPath id="an">
        <use xlink:href="#am" overflow="visible"/>
      </clipPath>
      <linearGradient id="ao" gradientUnits="userSpaceOnUse" x1=".002" y1="402.52" x2="1.002" y2="402.52" gradientTransform="scale(305.4813 -305.4813) rotate(-85.848 -216.393 200.966)">
        <stop offset="0" stop-color="#818184"/>
        <stop offset=".5" stop-color="#010101"/>
        <stop offset="1" stop-color="#818184"/>
      </linearGradient>
      <path clip-path="url(#an)" fill="url(#ao)" d="M189.88 77.627l22.539 310.501-197.243 14.318L-7.362 91.945z"/>
    </g>
    <g>
      <defs>
        <path id="ap" d="M17.837 113.923c9.808 41.204 19.7 82.805 29.668 124.676 10.043 42.205 20.171 84.768 30.387 127.693 3.163 13.295 13.508 22.723 22.864 20.934 13.378-2.558 26.548-5.078 39.472-7.551 12.71-2.431 25.201-4.818 37.505-7.167 8.324-1.591 12.55-12.983 9.483-25.305-9.912-39.815-19.747-79.323-29.502-118.522-9.687-38.917-19.301-77.555-28.853-115.912-2.923-11.729-12.207-21.381-20.695-21.416-12.542-.052-25.274-.101-38.224-.156-13.164-.052-26.565-.108-40.183-.163l-.053-.001c-9.486.001-14.872 10.285-11.869 22.89"/>
      </defs>
      <clipPath id="aq">
        <use xlink:href="#ap" overflow="visible"/>
      </clipPath>
      <linearGradient id="ar" gradientUnits="userSpaceOnUse" y1="402.526" x2="1" y2="402.526" gradientTransform="scale(-300.8225 300.8225) rotate(-76.848 -253.138 202.18)">
        <stop offset="0" stop-color="#414142"/>
        <stop offset=".5" stop-color="#d1d2d3"/>
        <stop offset="1" stop-color="#414142"/>
      </linearGradient>
      <path clip-path="url(#aq)" fill="url(#ar)" d="M23.917 427.888l-75.105-321.429L181.2 52.16l75.105 321.428z"/>
    </g>
    <g>
      <defs>
        <path id="as" d="M0 0h759.686v402.52H0z"/>
      </defs>
      <clipPath id="at">
        <use xlink:href="#as" overflow="visible"/>
      </clipPath>
      <path clip-path="url(#at)" fill-rule="evenodd" clip-rule="evenodd" fill="#FFF" d="M30.37 93.573c13.617.033 27.018.094 40.189.127l38.208.092c7.55.019 15.789 8.543 18.39 18.995 9.549 38.401 19.175 77.086 28.862 116.021l29.515 118.691c2.727 10.961-1.044 21.054-8.435 22.455-12.303 2.332-24.797 4.695-37.512 7.102-12.927 2.447-26.096 4.945-39.477 7.479-8.304 1.574-17.47-6.781-20.281-18.578-10.208-42.875-20.334-85.389-30.373-127.534L19.804 113.902C17.13 102.679 21.93 93.553 30.37 93.573"/>
      <path clip-path="url(#at)" fill-rule="evenodd" clip-rule="evenodd" fill="#231F20" d="M30.977 96.112l40.181.032c12.947.009 25.663.049 38.202.059 6.6.005 13.813 7.461 16.088 16.603 9.565 38.445 19.184 77.174 28.875 116.16 9.773 39.316 19.612 78.918 29.532 118.831 2.377 9.561-.914 18.419-7.384 19.637-12.305 2.307-24.802 4.635-37.519 7.008-12.933 2.412-26.099 4.896-39.484 7.408-7.261 1.361-15.253-5.953-17.701-16.232C71.564 322.8 61.432 280.34 51.399 238.242c-9.958-41.762-19.845-83.259-29.642-124.359-2.332-9.795 1.846-17.776 9.22-17.771"/>
    </g>
    <g>
      <defs>
        <path id="au" d="M22.256 113.876c9.797 41.089 19.68 82.571 29.633 124.324 10.035 42.082 20.142 84.526 30.355 127.334 2.358 9.88 10.068 16.968 17.062 15.657 13.385-2.506 26.56-4.971 39.488-7.394 12.716-2.379 25.214-4.717 37.518-7.017 6.236-1.168 9.406-9.711 7.122-18.913-9.927-39.921-19.757-79.536-29.541-118.864-9.693-38.996-19.327-77.734-28.885-116.193-2.19-8.806-9.138-16.011-15.498-16.012-12.537-.005-25.251-.011-38.2-.015-4.454-.001-8.936 0-13.441.001-8.815.001-17.729.002-26.737-.014h-.02c-7.094.001-11.102 7.687-8.856 17.106"/>
      </defs>
      <clipPath id="av">
        <use xlink:href="#au" overflow="visible"/>
      </clipPath>
      <linearGradient id="aw" gradientUnits="userSpaceOnUse" y1="402.521" x2="1" y2="402.521" gradientTransform="scale(-290.5937 290.5937) rotate(-85.848 -215.895 202.118)">
        <stop offset="0" stop-color="#010101"/>
        <stop offset=".533" stop-color="#4d4d4f"/>
        <stop offset=".996" stop-color="#010101"/>
        <stop offset="1" stop-color="#010101"/>
      </linearGradient>
      <path clip-path="url(#av)" fill="url(#aw)" d="M20.878 394.466L-.622 98.268 184.85 84.805l21.5 296.198z"/>
    </g>
    <g>
      <defs>
        <path id="ax" d="M83.753 112.322c-5.38.052-10.81.107-16.257.162-1.639.018-2.527 1.816-1.989 4.046.525 2.169 2.286 3.966 3.924 3.938 5.445-.085 10.871-.166 16.25-.252 1.581-.022 2.446-1.831 1.921-3.969-.528-2.155-2.252-3.925-3.829-3.925h-.02"/>
      </defs>
      <clipPath id="ay">
        <use xlink:href="#ax" overflow="visible"/>
      </clipPath>
      <linearGradient id="az" gradientUnits="userSpaceOnUse" x1="-.023" y1="402.477" x2=".977" y2="402.477" gradientTransform="scale(8.3385 -8.3385) rotate(-85.848 -218.8 189.851)">
        <stop offset="0" stop-color="#010101"/>
        <stop offset="1" stop-color="#fff"/>
      </linearGradient>
      <path clip-path="url(#ay)" fill="url(#az)" d="M88.006 110.65l.711 9.803-23.627 1.715-.711-9.803z"/>
    </g>
    <g>
      <defs>
        <path id="aA" d="M0 0h759.686v402.52H0z"/>
      </defs>
      <clipPath id="aB">
        <use xlink:href="#aA" overflow="visible"/>
      </clipPath>
      <path clip-path="url(#aB)" fill-rule="evenodd" clip-rule="evenodd" fill="#010101" d="M69.203 113.696c4.499-.025 8.979-.093 13.423-.138 1.102-.013 2.306 1.195 2.678 2.721.368 1.501-.226 2.73-1.339 2.748-4.441.066-8.919.134-13.418.2-1.129.017-2.367-1.227-2.732-2.727-.374-1.547.255-2.796 1.388-2.804M65.855 115.114a.387.387 0 0 1-.017.236c.002-.058.017-.146.017-.236M87.257 117.613a.7.7 0 0 1 .013-.261c-.001.088 0 .174-.013.261"/>
      <path clip-path="url(#aB)" fill-rule="evenodd" clip-rule="evenodd" fill="#414142" d="M29.648 90.558c13.616.058 27.018.117 40.184.175l38.223.166c8.489.038 17.89 10.141 20.812 21.9.166.672.323 1.291.48 1.934-2.926-11.755-12.21-21.402-20.697-21.422-12.54-.036-25.271-.068-38.221-.104-13.161-.038-26.562-.075-40.174-.11-9.519-.028-14.929 10.283-11.92 22.911-.166-.696-.328-1.358-.493-2.055-3.007-12.626 2.286-23.44 11.806-23.395"/>
      <path clip-path="url(#aB)" fill-rule="evenodd" clip-rule="evenodd" fill="#7A7C7E" d="M17.634 104.036c.85-3.937 2.796-7.502 6.331-9.66 1.905-1.162 4.065-1.715 6.291-1.709 13.39.038 26.783.076 40.176.11l38.219.105c4.887.012 9.46 3.043 12.743 6.444.588.61 1.153 1.248 1.694 1.911a32.011 32.011 0 0 0-2.849-3.49c-3.086-3.268-7.511-6.399-12.186-6.419-12.742-.057-25.481-.112-38.225-.167l-40.182-.177c-1.91-.008-3.775.45-5.431 1.406-4.127 2.39-6.04 6.899-6.581 11.646"/>
      <path clip-path="url(#aB)" fill-rule="evenodd" clip-rule="evenodd" fill="#AEAFB1" d="M19.96 97.525a12.97 12.97 0 0 1 3.782-3.514c1.969-1.202 4.216-1.778 6.514-1.771l40.176.11 38.22.103c2.375.007 4.675.702 6.798 1.801-2.256-1.469-4.791-2.488-7.396-2.499a491433.784 491433.784 0 0 1-78.411-.342c-1.834-.009-3.623.428-5.212 1.348-1.991 1.152-3.445 2.814-4.471 4.764"/>
      <path clip-path="url(#aB)" fill-rule="evenodd" clip-rule="evenodd" fill="#E7E7E7" d="M25.925 92.515a13.036 13.036 0 0 1 3.318-.669 10.007 10.007 0 0 0-3.318.669"/>
      <path clip-path="url(#aB)" fill-rule="evenodd" clip-rule="evenodd" fill="#414142" d="M100.761 387.253c13.38-2.561 26.549-5.078 39.474-7.549 12.711-2.432 25.202-4.816 37.503-7.166 8.325-1.594 12.427-13.49 9.356-25.838a242.74 242.74 0 0 1-.494-1.963c3.068 12.316-1.162 23.699-9.487 25.271-12.304 2.334-24.798 4.695-37.509 7.107-12.928 2.45-26.097 4.943-39.48 7.48-9.361 1.771-19.701-7.666-22.865-20.961.171.725.337 1.422.51 2.146 3.16 13.296 13.637 23.264 22.992 21.473"/>
      <path clip-path="url(#aB)" fill-rule="evenodd" clip-rule="evenodd" fill="#7A7C7E" d="M187.538 357.794c-.868 4.926-3.12 9.438-7.507 11.67a10.62 10.62 0 0 1-2.838.969l-37.511 7.1c-13.16 2.498-26.318 4.992-39.48 7.482a12.26 12.26 0 0 1-1.795.209c-5.002.227-9.645-2.445-13.098-5.877a28.058 28.058 0 0 1-2.633-3.025 29.586 29.586 0 0 0 3.906 4.904c3.29 3.314 7.813 6.072 12.648 5.787.49-.027.972-.088 1.453-.18 13.155-2.516 26.313-5.031 39.47-7.549 12.502-2.393 25.005-4.781 37.506-7.17a9.461 9.461 0 0 0 2.332-.777c3.607-1.754 5.724-5.58 6.761-9.305.383-1.376.64-2.796.786-4.238"/>
      <path clip-path="url(#aB)" fill-rule="evenodd" clip-rule="evenodd" fill="#AEAFB1" d="M184.677 366.046c-1.157 1.563-2.626 2.871-4.449 3.801-.936.475-1.925.811-2.954 1.008-12.505 2.365-25.011 4.73-37.513 7.102-13.157 2.494-26.318 4.988-39.479 7.48-.612.117-1.232.188-1.856.217-3.258.145-6.364-.896-9.105-2.58 2.849 2.182 6.281 3.727 9.885 3.516.47-.029.935-.084 1.395-.176l39.472-7.551c12.501-2.391 25.003-4.775 37.504-7.17a8.705 8.705 0 0 0 2.226-.738c2.135-1.041 3.73-2.842 4.874-4.909"/>
      <path clip-path="url(#aB)" fill-rule="evenodd" clip-rule="evenodd" fill="#E7E7E7" d="M179.163 370.773c-.587.215-1.194.383-1.812.5l-37.512 7.104c-13.159 2.492-26.319 4.986-39.476 7.482-.634.117-1.274.193-1.916.223-.495.018-.985.02-1.474-.014a10.988 10.988 0 0 0 3.548-.072c13.159-2.52 26.314-5.037 39.471-7.553 12.499-2.389 25.004-4.777 37.507-7.17a8.093 8.093 0 0 0 1.664-.5"/>
    </g>
    <g>
      <defs>
        <path id="aC" d="M21.129 147.527c-.928.296-1.857.595-2.785.889-1.114.357-1.481 1.698-1.241 2.698 2.692 11.141 5.384 22.287 8.079 33.428.246 1.012 1.166 1.956 2.296 1.565l2.778-.959c1.118-.385 1.47-1.744 1.225-2.752-2.684-11.091-5.38-22.179-8.065-33.272-.206-.849-.916-1.672-1.815-1.672-.152 0-.31.023-.472.075"/>
      </defs>
      <clipPath id="aD">
        <use xlink:href="#aC" overflow="visible"/>
      </clipPath>
      <linearGradient id="aE" gradientUnits="userSpaceOnUse" x1=".018" y1="402.521" x2="1.018" y2="402.521" gradientTransform="scale(-38.26 38.26) rotate(-85.848 -214.114 204.06)">
        <stop offset="0" stop-color="#010101"/>
        <stop offset="1" stop-color="#929496"/>
      </linearGradient>
      <path clip-path="url(#aD)" fill="url(#aE)" d="M16.941 187.571l-2.898-39.914 17.605-1.278 2.897 39.914z"/>
    </g>
    <g>
      <defs>
        <path id="aF" d="M15.441 124.008c-.93.284-1.86.564-2.791.846-1.134.344-1.491 1.701-1.244 2.707 1.069 4.429 2.143 8.85 3.209 13.279.248 1.017 1.146 1.971 2.286 1.612l2.787-.878c1.129-.355 1.485-1.708 1.242-2.713l-3.212-13.229c-.205-.855-.921-1.692-1.828-1.692-.145 0-.295.022-.449.068"/>
      </defs>
      <clipPath id="aG">
        <use xlink:href="#aF" overflow="visible"/>
      </clipPath>
      <linearGradient id="aH" gradientUnits="userSpaceOnUse" x1="-.029" y1="402.524" x2=".971" y2="402.524" gradientTransform="scale(-19.356 19.356) rotate(-85.848 -212.903 205.383)">
        <stop offset="0" stop-color="#010101"/>
        <stop offset="1" stop-color="#929496"/>
      </linearGradient>
      <path clip-path="url(#aG)" fill="url(#aH)" d="M11.211 143.534l-1.415-19.495 11.325-.822 1.415 19.495z"/>
    </g>
    <g>
      <defs>
        <path id="aI" d="M15.528 124.388l-2.793.845c-.775.234-1.19 1.226-.952 2.209 1.074 4.445 2.149 8.859 3.213 13.277.245 1.01 1.04 1.599 1.815 1.354.927-.291 1.849-.579 2.787-.876.752-.237 1.195-1.212.953-2.216l-3.21-13.227c-.204-.84-.841-1.413-1.493-1.413-.107 0-.215.015-.32.047"/>
      </defs>
      <clipPath id="aJ">
        <use xlink:href="#aI" overflow="visible"/>
      </clipPath>
      <linearGradient id="aK" gradientUnits="userSpaceOnUse" x1="-.019" y1="402.511" x2=".981" y2="402.511" gradientTransform="scale(17.0092 -17.0092) rotate(-80.848 -240.138 197.083)">
        <stop offset="0" stop-color="#e7e7e7"/>
        <stop offset=".09" stop-color="#c9c8c9"/>
        <stop offset=".294" stop-color="#9b999b"/>
        <stop offset=".492" stop-color="#7c7a7c"/>
        <stop offset=".68" stop-color="#686769"/>
        <stop offset=".854" stop-color="#5d5d5f"/>
        <stop offset="1" stop-color="#595a5c"/>
      </linearGradient>
      <path clip-path="url(#aJ)" fill="url(#aK)" d="M20.559 122.889l3.057 18.974-11.837 1.907-3.057-18.974z"/>
    </g>
    <g>
      <defs>
        <path id="aL" d="M21.224 147.905c-.943.298-1.86.591-2.788.889-.773.246-1.184 1.248-.954 2.201 2.692 11.142 5.378 22.255 8.081 33.424.236.985 1.042 1.582 1.812 1.315l2.78-.961c.751-.26 1.189-1.251.947-2.258-2.694-11.129-5.386-22.196-8.066-33.27-.201-.829-.83-1.392-1.475-1.392-.113 0-.226.017-.337.052"/>
      </defs>
      <clipPath id="aM">
        <use xlink:href="#aL" overflow="visible"/>
      </clipPath>
      <linearGradient id="aN" gradientUnits="userSpaceOnUse" x1=".019" y1="402.514" x2="1.019" y2="402.514" gradientTransform="scale(37.6433 -37.6433) rotate(-75.848 -260.563 198.962)">
        <stop offset="0" stop-color="#e7e7e7"/>
        <stop offset=".047" stop-color="#d1d0d1"/>
        <stop offset=".186" stop-color="#a6a4a6"/>
        <stop offset=".33" stop-color="#878587"/>
        <stop offset=".479" stop-color="#727072"/>
        <stop offset=".635" stop-color="#646365"/>
        <stop offset=".802" stop-color="#5c5c5e"/>
        <stop offset="1" stop-color="#595a5c"/>
      </linearGradient>
      <path clip-path="url(#aM)" fill="url(#aN)" d="M30.501 144.512l9.887 39.209-22.294 5.621-9.886-39.209z"/>
    </g>
    <g>
      <defs>
        <path id="aO" d="M14.87 124.609l-2.79.843c-.778.237-1.19 1.228-.955 2.211 1.075 4.446 2.148 8.859 3.214 13.276.243 1.012 1.041 1.6 1.815 1.357l2.787-.879c.751-.236 1.196-1.211.951-2.215l-3.209-13.229c-.204-.839-.841-1.411-1.494-1.411a1.09 1.09 0 0 0-.319.047"/>
      </defs>
      <clipPath id="aP">
        <use xlink:href="#aO" overflow="visible"/>
      </clipPath>
      <radialGradient id="aQ" cx="-.019" cy="402.524" r=".999" gradientTransform="scale(20.2051 -20.2051) rotate(4.149 5655.253 206.833)" gradientUnits="userSpaceOnUse">
        <stop offset="0" stop-color="#e7e7e7"/>
        <stop offset="1" stop-color="#595a5c"/>
      </radialGradient>
      <path clip-path="url(#aP)" fill="url(#aQ)" d="M9.593 124.656l10.495-.761 1.346 18.55-10.496.761z"/>
    </g>
    <g>
      <defs>
        <path id="aR" d="M20.564 148.126c-.94.298-1.858.593-2.786.888-.773.246-1.181 1.248-.953 2.203 2.691 11.139 5.377 22.253 8.081 33.425.234.983 1.04 1.578 1.812 1.313l2.779-.961c.753-.26 1.19-1.251.946-2.254-2.694-11.134-5.382-22.201-8.065-33.271-.202-.833-.831-1.395-1.478-1.395-.112 0-.225.017-.336.052"/>
      </defs>
      <clipPath id="aS">
        <use xlink:href="#aR" overflow="visible"/>
      </clipPath>
      <radialGradient id="aT" cx=".002" cy="402.538" r="1" gradientTransform="scale(38.9199 -38.9199) rotate(4.149 5623.209 206.553)" gradientUnits="userSpaceOnUse">
        <stop offset="0" stop-color="#e7e7e7"/>
        <stop offset="1" stop-color="#595a5c"/>
      </radialGradient>
      <path clip-path="url(#aS)" fill="url(#aT)" d="M13.845 148.274l16.768-1.217 2.826 38.964-16.768 1.216z"/>
    </g>
    <g>
      <defs>
        <path id="aU" d="M137.147 340.078c-6.592.479-11.547 6.208-11.069 12.802.478 6.59 6.21 11.549 12.802 11.069 6.591-.479 11.546-6.213 11.068-12.803-.457-6.297-5.708-11.1-11.921-11.1-.291 0-.585.011-.88.032"/>
      </defs>
      <clipPath id="aV">
        <use xlink:href="#aU" overflow="visible"/>
      </clipPath>
      <linearGradient id="aW" gradientUnits="userSpaceOnUse" x1="-.01" y1="402.516" x2=".99" y2="402.516" gradientTransform="scale(23.9332 -23.9332) rotate(4.152 5758.667 266.694)">
        <stop offset="0" stop-color="#3b3839"/>
        <stop offset=".498" stop-color="#9c9a9b"/>
        <stop offset="1"/>
      </linearGradient>
      <path clip-path="url(#aV)" fill="url(#aW)" d="M123.839 340.173l26.457-1.92 1.891 26.047-26.457 1.92z"/>
    </g>
    <g>
      <defs>
        <path id="aX" d="M127.024 352.012c0 6.099 4.945 11.044 11.044 11.044s11.044-4.945 11.044-11.044c0-6.1-4.945-11.044-11.044-11.044s-11.044 4.945-11.044 11.044"/>
      </defs>
      <clipPath id="aY">
        <use xlink:href="#aX" overflow="visible"/>
      </clipPath>
      <radialGradient id="aZ" cx=".032" cy="402.555" r="1" gradientTransform="matrix(11.0439 0 0 -11.0439 137.709 4797.787)" gradientUnits="userSpaceOnUse">
        <stop offset="0" stop-color="#4d4d4f"/>
        <stop offset=".106" stop-color="#484749"/>
        <stop offset=".281" stop-color="#3e3d3e"/>
        <stop offset=".503" stop-color="#2f2d2e"/>
        <stop offset=".763" stop-color="#1b1919"/>
        <stop offset="1" stop-color="#010101"/>
      </radialGradient>
      <path clip-path="url(#aY)" fill="url(#aZ)" d="M127.024 340.968h22.088v22.088h-22.088z"/>
    </g>
    <g>
      <defs>
        <path id="ba" d="M0 0h759.686v402.52H0z"/>
      </defs>
      <clipPath id="bb">
        <use xlink:href="#ba" overflow="visible"/>
      </clipPath>
      <path clip-path="url(#bb)" fill-rule="evenodd" clip-rule="evenodd" fill="#FFF" d="M33.546 139.068c16.241-.408 32.167-.854 47.753-1.26 15.286-.397 30.286-.788 44.982-1.184 7.627 30.764 15.305 61.725 23.014 92.798 7.76 31.272 15.582 62.796 23.437 94.464-14.504 2.284-29.31 4.604-44.395 6.969a66095.965 66095.965 0 0 1-47.209 7.383c-8.054-33.719-16.057-67.254-24.01-100.519a379518.9 379518.9 0 0 1-23.572-98.651"/>
      <path clip-path="url(#bb)" fill="#FFF" d="M118.181 186.946c1.31 14.032-9.001 26.462-23.032 27.773-14.025 1.31-26.461-8.998-27.77-23.028-1.309-14.025 9-26.46 23.031-27.771 14.027-1.309 26.462 9 27.771 23.026"/>
      <path clip-path="url(#bb)" fill="#D6BFD3" d="M101.188 212.896l-7.43 1.534-24.723-37.652 7.193-4.516 19.295 29.349 10.297-31.94 7.821 4.701-12.453 38.524z"/>
      <path clip-path="url(#bb)" fill="none" stroke="#D7BFD3" stroke-width="4" stroke-miterlimit="10" d="M118.181 186.946c1.31 14.032-9.001 26.462-23.032 27.773-14.025 1.31-26.461-8.998-27.77-23.028-1.309-14.025 9-26.46 23.031-27.771 14.027-1.309 26.462 9 27.771 23.026z"/>
      <g clip-path="url(#bb)" enable-background="new">
        <defs>
          <path id="bc" d="M74.709 229.244h74.479v71.312H74.709z"/>
        </defs>
        <clipPath id="bd">
          <use xlink:href="#bc" overflow="visible"/>
        </clipPath>
        <g clip-path="url(#bd)">
          <defs>
            <path id="be" d="M86.366 300.555l-11.657-66.918 62.822-4.393 11.656 66.918z"/>
          </defs>
          <clipPath id="bf">
            <use xlink:href="#be" overflow="visible"/>
          </clipPath>
          <path clip-path="url(#bf)" fill="#D7BFD3" d="M134.623 229.448l-59.208 8.241.578 2.74 59.2-8.24zM136.656 239.126l-59.2 8.241.577 2.741 59.208-8.241zM138.696 248.805l-59.2 8.24.579 2.749 59.2-8.239zM143.823 270.012l-59.2 8.24.578 2.742 59.2-8.241zM145.864 279.691l-59.2 8.24.577 2.741 59.201-8.24zM147.904 289.37l-59.2 8.24.577 2.741 59.201-8.24z"/>
        </g>
      </g>
    </g>
    <g>
      <path fill="#D1D3D4" d="M711.764 203.721c18.07-.648 30.728-1.741 36.741 25.161 6.011 26.907-2.238 54.577-2.238 54.577-9.94 28.675-37.245 49.768-37.469 48.428-.289-1.736-.243-40.7-.243-40.7-.514 13.479 19.718 7.551 30.125-23.468 3.741-11.15 7.695-46.634-6.305-51.691-14.006-5.07-21.468 16.909-21.468 16.909l.422-8.303.435-20.913z"/>
      <linearGradient id="bg" gradientUnits="userSpaceOnUse" x1="708.555" y1="271.204" x2="755.945" y2="271.204">
        <stop offset="0" stop-color="#c9c9c9"/>
        <stop offset=".118" stop-color="#f7f8f9"/>
        <stop offset=".657" stop-color="#d9d9d8"/>
        <stop offset=".961" stop-color="#e9e9e9"/>
        <stop offset="1" stop-color="#e9e9e9"/>
      </linearGradient>
      <path fill="url(#bg)" d="M711.764 203.721c20.611-5.201 39.411.025 42.903 20.799 4.927 29.307-5.981 55.333-5.981 55.333-9.94 28.675-39.811 62.007-40.034 60.667-.289-1.736.16-36.523.16-36.523-.514 13.479 31.338-7.642 36.188-37.187 4.848-29.543-1-49.957-15.325-51.29-14.831-1.38-19.342 20.333-19.342 20.333l.983-15.836.448-16.296z"/>
      <defs>
        <path id="bh" d="M-10 0h759.686v402.52H-10z"/>
      </defs>
      <clipPath id="bi">
        <use xlink:href="#bh" overflow="visible"/>
      </clipPath>
      <path clip-path="url(#bi)" d="M716.318 383.068c0 6.675-39.978 17-89.287 17-49.313 0-89.296-10.663-89.296-20.05 0-9.396 39.982-13.966 89.296-13.966 49.309 0 89.287 7.62 89.287 17.016"/>
      <path clip-path="url(#bi)" fill="#E9E9E9" d="M825.801 231.69l2 27.053 1.913-.16s2.217-16.132 20.663-12.731c18.435 3.403 24.686 25.422 21.152 55.41-3.535 29.989-33.994 27.599-39.393 18.98l.847 23.291s1.274-1.205 2.638-1.315c1.366-.115 37.244 1.268 47.41-28.451 0 0 8.662-31.242-1.505-57.332-10.169-26.089-30.345-27.148-53.488-24.381l-2.237-.364z"/>
      <defs>
        <path id="bj" d="M-10 0h759.686v402.52H-10z"/>
      </defs>
      <clipPath id="bk">
        <use xlink:href="#bj" overflow="visible"/>
      </clipPath>
      <path clip-path="url(#bk)" fill="#F7F8F9" d="M849.569 169.096c1.765.064 15.642 4.296 21.342 18.521 0 0 2.587-3.629-5.925-12.338-8.512-8.704-15.417-6.183-15.417-6.183M869.095 201.26s7.285 4.786 8.354 8.314c-.001.001-1.339-7.385-8.354-8.314M684.88 304.503s3.047 5.221 11.62 5.692c0 0-11.561-6.449-11.424-8.165.133-1.715-.196 2.473-.196 2.473"/>
      <g>
        <defs>
          <path id="bl" d="M626.573 164.97c-2.81-.022-72.94-.477-88.696 10.488l5.093 206.85s29.829 14.753 83.601 13.379c53.772 1.376 83.598-12.627 83.598-12.627l5.094-207.602c-14.289-9.942-73.274-10.496-86.246-10.496-1.335 0-2.183.006-2.444.008"/>
        </defs>
        <clipPath id="bm">
          <use xlink:href="#bl" overflow="visible"/>
        </clipPath>
        <linearGradient id="bn" gradientUnits="userSpaceOnUse" x1="-.055" y1="402.52" x2=".945" y2="402.52" gradientTransform="matrix(177.3857 0 0 -177.3857 547.56 71682.055)">
          <stop offset="0" stop-color="#c9c9c9"/>
          <stop offset=".118" stop-color="#f7f8f9"/>
          <stop offset=".657" stop-color="#d9d9d8"/>
          <stop offset=".961" stop-color="#e9e9e9"/>
          <stop offset="1" stop-color="#e9e9e9"/>
        </linearGradient>
        <path clip-path="url(#bm)" fill="url(#bn)" d="M537.877 164.493h177.385v232.57H537.877z"/>
      </g>
      <g>
        <defs>
          <path id="bo" d="M-10 0h759.686v402.52H-10z"/>
        </defs>
        <clipPath id="bp">
          <use xlink:href="#bo" overflow="visible"/>
        </clipPath>
        <path clip-path="url(#bp)" fill="#F7F8F9" d="M596.88 388.685s22.755 8.306 67.922 0c0 0-50.665 4.332-67.922 0"/>
      </g>
      <g>
        <defs>
          <path id="bq" d="M682.206 180.536s4.245 58.723 3.545 66.505l6.359-67.218-9.904.713z"/>
        </defs>
        <clipPath id="br">
          <use xlink:href="#bq" overflow="visible"/>
        </clipPath>
        <linearGradient id="bs" gradientUnits="userSpaceOnUse" x1="-.002" y1="402.666" x2=".998" y2="402.666" gradientTransform="matrix(0 -67.2178 -67.2178 0 27753.512 246.845)">
          <stop offset="0" stop-color="#e9e9e9"/>
          <stop offset=".586" stop-color="#ebebeb"/>
          <stop offset=".918" stop-color="#f3f4f4"/>
          <stop offset="1" stop-color="#f7f8f9"/>
        </linearGradient>
        <path clip-path="url(#br)" fill="url(#bs)" d="M682.206 179.823h9.904v67.218h-9.904z"/>
      </g>
      <g>
        <defs>
          <path id="bt" d="M-10 0h759.686v402.52H-10z"/>
        </defs>
        <clipPath id="bu">
          <use xlink:href="#bt" overflow="visible"/>
        </clipPath>
        <path clip-path="url(#bu)" fill="#F7F8F9" d="M715.322 176.034c0 6.646-40.713 11.916-89.357 11.916-48.647 0-88.088-5.729-88.088-12.367 0-6.643 39.44-11.69 88.088-11.69 48.644 0 89.357 5.499 89.357 12.141"/>
        <path clip-path="url(#bu)" fill="none" stroke="#E6E7E8" stroke-width=".5" stroke-miterlimit="10" d="M715.322 176.034c0 6.646-40.713 11.916-89.357 11.916-48.647 0-88.088-5.729-88.088-12.367 0-6.643 39.44-11.69 88.088-11.69 48.644 0 89.357 5.499 89.357 12.141z"/>
      </g>
      <g>
        <defs>
          <path id="bv" d="M544.952 176.289c0 4.3 36.271 7.783 81.013 7.783 44.732 0 81.005-3.483 81.005-7.783 0-4.3-36.272-7.783-81.005-7.783-44.741 0-81.013 3.483-81.013 7.783"/>
        </defs>
        <clipPath id="bw">
          <use xlink:href="#bv" overflow="visible"/>
        </clipPath>
        <linearGradient id="bx" gradientUnits="userSpaceOnUse" x1="-.063" y1="402.52" x2=".938" y2="402.52" gradientTransform="matrix(162.0176 0 0 -162.0176 555.064 65391.574)">
          <stop offset="0" stop-color="#bbbdbf"/>
          <stop offset=".219" stop-color="#f3f3f3"/>
          <stop offset="1" stop-color="#9c9da1"/>
        </linearGradient>
        <path clip-path="url(#bw)" fill="url(#bx)" d="M544.952 168.506H706.97v15.566H544.952z"/>
      </g>
      <g>
        <path fill="#D6BFD3" d="M625.606 342.342l-8.951 1.779-46.495-77.32 15.036-21.229 37.769 70.08 23.939-73.672 22.174 13.989-43.472 86.373z"/>
        <path fill="#864778" d="M635.552 340.971l-16.337 1.149-42.086-87.668 16.69-7.6 32.857 68.345 31.208-65.39 15.383 12.309-37.715 78.855z"/>
        <path fill="#FFF" d="M621.215 241.98c26.59 0 48.146 21.556 48.146 48.145 0 26.591-21.556 48.146-48.146 48.146-26.588 0-48.144-21.556-48.144-48.146 0-26.589 21.556-48.145 48.144-48.145m0-3.883c-28.688 0-52.026 23.341-52.026 52.027 0 13.897 5.412 26.963 15.238 36.789 9.827 9.826 22.892 15.238 36.788 15.238 13.897 0 26.964-5.412 36.79-15.238s15.238-22.892 15.238-36.789c0-13.896-5.412-26.962-15.238-36.788-9.826-9.827-22.893-15.239-36.79-15.239z"/>
        <path fill="#874878" d="M621.215 238.625c28.444 0 51.501 23.059 51.501 51.501s-23.057 51.499-51.501 51.499c-28.441 0-51.498-23.057-51.498-51.499s23.056-51.501 51.498-51.501m0-7.65c-15.798 0-30.652 6.153-41.824 17.324-11.172 11.173-17.324 26.026-17.324 41.826s6.152 30.653 17.324 41.825c11.172 11.171 26.026 17.323 41.824 17.323 15.799 0 30.654-6.152 41.825-17.323 11.172-11.172 17.324-26.025 17.324-41.825s-6.152-30.653-17.324-41.826c-11.171-11.171-26.026-17.324-41.825-17.324z"/>
        <path fill="#D5BFD3" d="M621.213 229.599c33.431 0 60.527 27.101 60.527 60.523 0 33.43-27.097 60.528-60.527 60.528-33.423 0-60.521-27.099-60.521-60.528-.001-33.422 27.098-60.523 60.521-60.523m0-.97c-16.424 0-31.866 6.396-43.481 18.013-11.614 11.614-18.011 27.056-18.011 43.48 0 16.426 6.396 31.871 18.011 43.487 11.614 11.615 27.056 18.012 43.481 18.012 16.428 0 31.872-6.396 43.486-18.012 11.616-11.615 18.013-27.061 18.013-43.487 0-16.425-6.396-31.866-18.013-43.48-11.615-11.616-27.059-18.013-43.486-18.013z"/>
      </g>
      <g>
        <defs>
          <path id="by" d="M-10 0h759.686v402.52H-10z"/>
        </defs>
        <clipPath id="bz">
          <use xlink:href="#by" overflow="visible"/>
        </clipPath>
        <path clip-path="url(#bz)" fill="#676767" d="M688.165 32.5s3.788-7.866 5.016-9.66c.521-.761 1.313-.93 1.505.202.191 1.13.371 10.846.371 10.846l-6.478-1.258"/>
        <path clip-path="url(#bz)" fill="#E3BC96" d="M672.137 62l16.25-29.96s4.422-4.415 6.646.828l.806 34.665L672.137 62"/>
        <path clip-path="url(#bz)" fill="#FFCB31" d="M678.775 57.345l-37.962 126.596c.945.054 6.083-.007 8.437-.177l36.666-125.409-7.141-1.01z"/>
        <path clip-path="url(#bz)" fill="#FAA71A" d="M657.17 183.474l35.639-122.698-7.011-2.438-37.206 125.426c.626-.061 6.359-.17 8.578-.29"/>
        <path clip-path="url(#bz)" fill="#FFDC8C" d="M641.229 183.934l37.547-126.588L672.137 62l-35.762 122.008c.047.009 3.832-.133 4.854-.074"/>
        <defs>
          <path id="bA" d="M692.452 61.985c.019.001-35.282 121.489-35.282 121.489.968-.05 4.534-.284 4.89-.216l4.456-15.57.313-1.075.631-2.15 4.79-16.359.157-.53 3.258-11.127.152-.536 3.251-11.081.153-.537 3.288-11.227.159-.537 3.241-11.082.156-.529.278-.964 2.591-8.844.389-1.326.16-.532 3.24-11.084.16-.532 2.955-10.102-3.031-6.758-.355 1.209z"/>
        </defs>
        <clipPath id="bB">
          <use xlink:href="#bA" overflow="visible"/>
        </clipPath>
        <linearGradient id="bC" gradientUnits="userSpaceOnUse" x1=".938" y1="402.743" x2="1.938" y2="402.743" gradientTransform="scale(-10.0065 10.0065) rotate(-14.657 -1551.423 476.117)">
          <stop offset="0" stop-color="#ffd041"/>
          <stop offset="1" stop-color="#d86527"/>
        </linearGradient>
        <path clip-path="url(#bB)" fill="url(#bC)" d="M693.363 192.94l-66.228-17.321L659.646 51.31l66.228 17.321z"/>
        <defs>
          <path id="bD" d="M684.512 59.571l-36.396 124.258c.186-.023.516-.047.703-.065l36.68-124.541c-.112-.005-.257-.03-.403-.03-.235 0-.473.064-.584.378"/>
        </defs>
        <clipPath id="bE">
          <use xlink:href="#bD" overflow="visible"/>
        </clipPath>
        <linearGradient id="bF" gradientUnits="userSpaceOnUse" x1=".016" y1="402.527" x2="1.02" y2="402.527" gradientTransform="scale(-541.0002 541.0002) rotate(-14.656 -1564.551 207.992)">
          <stop offset="0" stop-color="#fff"/>
          <stop offset="1" stop-color="#ffd04b"/>
        </linearGradient>
        <path clip-path="url(#bE)" fill="url(#bF)" d="M683.104 192.979l-65.498-17.129 32.902-125.808 65.499 17.13z"/>
        <g>
          <defs>
            <path id="bG" d="M648.592 183.764l.944-.043 36.325-124.064s.094-.266-.363-.434l-36.906 124.541z"/>
          </defs>
          <clipPath id="bH">
            <use xlink:href="#bG" overflow="visible"/>
          </clipPath>
          <linearGradient id="bI" gradientUnits="userSpaceOnUse" x1=".026" y1="402.528" x2="1.026" y2="402.528" gradientTransform="scale(-376.017 376.017) rotate(-14.656 -1564.448 210.142)">
            <stop offset="0" stop-color="#fff"/>
            <stop offset="1" stop-color="#fcb122"/>
          </linearGradient>
          <path clip-path="url(#bH)" fill="url(#bI)" d="M683.563 192.91l-65.457-17.118 32.877-125.715 65.457 17.119z"/>
        </g>
        <g>
          <defs>
            <path id="bJ" d="M678.072 57.806l-36.844 125.823.047.002 37.04-125.97-.243.145z"/>
          </defs>
          <clipPath id="bK">
            <use xlink:href="#bJ" overflow="visible"/>
          </clipPath>
          <linearGradient id="bL" gradientUnits="userSpaceOnUse" x1="-.032" y1="402.511" x2=".968" y2="402.511" gradientTransform="scale(275.1258 -275.1258) rotate(-14.656 -1565.05 194.91)">
            <stop offset="0" stop-color="#fff"/>
            <stop offset="1" stop-color="#ffd04b"/>
          </linearGradient>
          <path clip-path="url(#bK)" fill="url(#bL)" d="M643.603 48.583l65.547 17.143-33.21 126.983-65.547-17.143z"/>
        </g>
        <g>
          <defs>
            <path id="bM" d="M675.739 59.967c-.73.578-1.727 1.393-3.097 2.522l-36.164 121.518 4.625-.047 36.752-125.413-2.116 1.42z"/>
          </defs>
          <clipPath id="bN">
            <use xlink:href="#bM" overflow="visible"/>
          </clipPath>
          <linearGradient id="bO" gradientUnits="userSpaceOnUse" x1="-.101" y1="402.494" x2=".899" y2="402.494" gradientTransform="scale(99.3007 -99.3007) rotate(-14.656 -1565.974 177.648)">
            <stop offset="0" stop-color="#fff"/>
            <stop offset="1" stop-color="#ffe09a"/>
          </linearGradient>
          <path clip-path="url(#bN)" fill="url(#bO)" d="M639.127 48.418l69.438 18.161-33.359 127.556-69.438-18.16z"/>
        </g>
        <g>
          <defs>
            <path id="bP" d="M691.518 63.167l-35.253 120.348c.229-.013.555-.029.784-.041l35.348-121.178c-.474 0-.662.281-.879.871"/>
          </defs>
          <clipPath id="bQ">
            <use xlink:href="#bP" overflow="visible"/>
          </clipPath>
          <linearGradient id="bR" gradientUnits="userSpaceOnUse" x1="-.088" y1="402.498" x2=".912" y2="402.498" gradientTransform="scale(104.9727 -104.9727) rotate(-14.656 -1565.933 178.403)">
            <stop offset="0" stop-color="#fff"/>
            <stop offset="1" stop-color="#ffd04b"/>
          </linearGradient>
          <path clip-path="url(#bQ)" fill="url(#bR)" d="M658.578 53.452l63.491 16.604-31.985 122.303-63.491-16.604z"/>
        </g>
        <g>
          <defs>
            <path id="bS" d="M656.265 183.515l.905-.041 35.604-119.977c.137-.614.046-1.01-.377-1.201l-36.132 121.219z"/>
          </defs>
          <clipPath id="bT">
            <use xlink:href="#bS" overflow="visible"/>
          </clipPath>
          <linearGradient id="bU" gradientUnits="userSpaceOnUse" x1=".093" y1="402.493" x2="1.093" y2="402.493" gradientTransform="rotate(-161.778 -3112.61 21886.782) scale(108.6814)">
            <stop offset="0" stop-color="#fff"/>
            <stop offset="1" stop-color="#fcb122"/>
          </linearGradient>
          <path clip-path="url(#bT)" fill="url(#bU)" d="M728.914 74.149l-69.065-22.737-39.588 120.25 69.066 22.737z"/>
        </g>
        <g>
          <defs>
            <path id="bV" d="M-10 0h759.686v402.52H-10z"/>
          </defs>
          <clipPath id="bW">
            <use xlink:href="#bV" overflow="visible"/>
          </clipPath>
          <path clip-path="url(#bW)" fill="#E1AF88" d="M685.798 58.338l6.728-27.944s.705.109 1.227.627c.003.01-.002-.006 0 0l-.051.88-.428 5.411c.161-3.153.222-5.389.092-5.585a1.264 1.264 0 0 0-.154-.196c-.362-.36-.479.279-.479.279l-5.826 26.913"/>
          <path clip-path="url(#bW)" fill="#DFA37E" d="M686.905 58.723l5.826-26.913s.117-.639.479-.279c.048.05.1.112.154.196.13.197.069 2.433-.092 5.585l-1.8 22.973-.942-.301 2.593-27.152-5.063 26.293"/>
          <path clip-path="url(#bW)" fill="#DD9C76" d="M688.165 59.162l4.959-26.33-2.732 27.104"/>
        </g>
        <g>
          <defs>
            <path id="bX" d="M690.19 29.205l-1.02 2.167a6.935 6.935 0 0 1 1.055-.622l3.219-7.482-3.254 5.937z"/>
          </defs>
          <clipPath id="bY">
            <use xlink:href="#bX" overflow="visible"/>
          </clipPath>
          <linearGradient id="bZ" gradientUnits="userSpaceOnUse" x1="-.31" y1="402.56" x2=".693" y2="402.56" gradientTransform="scale(31.6116 -31.6116) rotate(8.405 2756.253 345.303)">
            <stop offset="0" stop-color="#fff"/>
            <stop offset="1" stop-color="#7c7a7a"/>
          </linearGradient>
          <path clip-path="url(#bY)" fill="url(#bZ)" d="M687.999 23.441l5.354-.791 1.263 8.549-5.353.791z"/>
        </g>
        <g>
          <defs>
            <path id="ca" d="M689.171 31.372c-.106.077-.236.211-.327.277l-16.528 30.216.343-.264 6.117-4.256 11.45-26.595a6.935 6.935 0 0 0-1.055.622"/>
          </defs>
          <clipPath id="cb">
            <use xlink:href="#ca" overflow="visible"/>
          </clipPath>
          <linearGradient id="cc" gradientUnits="userSpaceOnUse" x1="-.311" y1="402.581" x2=".689" y2="402.581" gradientTransform="scale(32.0087 -32.0087) rotate(8.405 2759.898 343.779)">
            <stop offset="0" stop-color="#fff"/>
            <stop offset="1" stop-color="#e8c4a3"/>
          </linearGradient>
          <path clip-path="url(#cb)" fill="url(#cc)" d="M667.815 31.415l22.029-3.255 4.882 33.04-22.029 3.255z"/>
        </g>
        <g>
          <defs>
            <path id="cd" d="M694.615 32.066c-.002-.012-.008-.018-.012-.026l.012.026z"/>
          </defs>
          <clipPath id="ce">
            <use xlink:href="#cd" overflow="visible"/>
          </clipPath>
          <linearGradient id="cf" gradientUnits="userSpaceOnUse" x1="2.136" y1="402.401" x2="2.97" y2="402.401" gradientTransform="matrix(-4.9065 .2805 .2805 4.9065 594.789 -1943.074)">
            <stop offset="0" stop-color="#fff"/>
            <stop offset="1" stop-color="#7c7a7a"/>
          </linearGradient>
          <path clip-path="url(#ce)" fill="url(#cf)" d="M694.603 32.04h.013v.027h-.013z"/>
        </g>
        <g>
          <defs>
            <path id="cg" d="M693.835 57.969l-.115 4.328 1.96 4.445-1.076-34.287-.769 25.514zm.769-25.514c.001.004.001.002 0 0v-.004.004"/>
          </defs>
          <clipPath id="ch">
            <use xlink:href="#cg" overflow="visible"/>
          </clipPath>
          <linearGradient id="ci" gradientUnits="userSpaceOnUse" x1="1.076" y1="402.463" x2="2.076" y2="402.463" gradientTransform="matrix(-9.2516 .5289 .5289 9.2516 498.486 -3674.777)">
            <stop offset="0" stop-color="#fff"/>
            <stop offset="1" stop-color="#e8c4a3"/>
          </linearGradient>
          <path clip-path="url(#ch)" fill="url(#ci)" d="M697.634 66.63l-3.907.224-1.961-34.291 3.908-.224z"/>
        </g>
        <g>
          <defs>
            <path id="cj" d="M694.288 30.864l.298.212-.195-6.356z"/>
          </defs>
          <clipPath id="ck">
            <use xlink:href="#cj" overflow="visible"/>
          </clipPath>
          <linearGradient id="cl" gradientUnits="userSpaceOnUse" x1="1.136" y1="402.463" x2="2.136" y2="402.463" gradientTransform="matrix(-9.23 .5277 .5277 9.23 498.253 -3687.761)">
            <stop offset="0" stop-color="#fff"/>
            <stop offset="1" stop-color="#7c7a7a"/>
          </linearGradient>
          <path clip-path="url(#ck)" fill="url(#cl)" d="M694.948 31.055l-.659.038-.363-6.352.659-.038z"/>
        </g>
        <g>
          <defs>
            <path id="cm" d="M-10 0h759.686v402.52H-10z"/>
          </defs>
          <clipPath id="cn">
            <use xlink:href="#cm" overflow="visible"/>
          </clipPath>
          <path clip-path="url(#cn)" fill="#D49758" d="M694.615 32.066s-.295-.516-.401-.645c-.109-.132-.495-.476-.495-.476l-.91 29.831.944 2.106"/>
          <path clip-path="url(#cn)" fill="#D29467" d="M691.767 60.414c.244-3.305 1.137-15.761 1.507-23.102l.428-5.41-.893 28.874"/>
          <path clip-path="url(#cn)" fill="#D08B5F" d="M691.474 60.285l1.8-22.973c-.37 7.341-1.263 19.797-1.507 23.102"/>
          <path clip-path="url(#cn)" fill="#C88043" d="M693.148 61.534l-.339-.758.892-28.874.019-.956.326.289.167.187"/>
        </g>
      </g>
      <g>
        <defs>
          <path id="co" d="M679.222 149.957a3.58 3.58 0 0 0-.088.175c-.204.426-.402.843-.614 1.27-.02.041-.038.09-.061.13-.174.366-.353.734-.531 1.102-.243.517-.493 1.035-.745 1.554l-.063.135c-.126.263-.25.52-.374.782-.117.242-.23.484-.342.723a554.214 554.214 0 0 0-1.696 3.57c-.116.244-.229.481-.343.725-.085.174-.166.35-.243.523l-.054.104c-.897 1.903-1.802 3.837-2.713 5.797-.02.037-.033.07-.049.109-2.067 4.44-4.163 9.013-6.282 13.702-.323.718-.927 2.095-1.251 2.816.102.008 1.668-.159 2.982-.182 7.437-16.923 15.622-34.895 23.698-51.618l3.684 1.704c-14.917 32.051-15.075 32.705-22.765 49.657.143-.001 2.174-.184 2.752-.21 2.885-.253 5.623-.303 8.344-.659 1.723-4.083 3.622-8.799 5.219-12.71.03-.068.058-.14.091-.208a3384.044 3384.044 0 0 0 2.365-5.824c.069-.178.144-.358.214-.534.094-.23.187-.459.276-.689.431-1.067.853-2.125 1.271-3.177.221-.552.439-1.108.658-1.655a.96.96 0 0 1 .045-.104 3.92 3.92 0 0 1 .049-.13c.206-.514.406-1.024.606-1.533.157-.404.32-.806.477-1.207.026-.073.056-.15.088-.222.184-.478.37-.956.561-1.429a819.394 819.394 0 0 0 6.95-18.36l-12.126-4.174a896.684 896.684 0 0 0-9.99 20.047"/>
        </defs>
        <clipPath id="cp">
          <use xlink:href="#co" overflow="visible"/>
        </clipPath>
        <linearGradient id="cq" gradientUnits="userSpaceOnUse" x1=".269" y1="402.594" x2="1.269" y2="402.594" gradientTransform="matrix(-31.5165 -13.2502 -9.7996 23.3062 4654.158 -9215.283)">
          <stop offset="0" stop-color="#345528"/>
          <stop offset=".236" stop-color="#5bba47"/>
          <stop offset=".438" stop-color="#6dbe45"/>
          <stop offset=".697" stop-color="#5aba47"/>
          <stop offset="1" stop-color="#0c8040"/>
        </linearGradient>
        <path clip-path="url(#cp)" fill="url(#cq)" d="M695.694 196.603l-50.956-21.423 24.678-58.69 50.955 21.423z"/>
        <defs>
          <path id="cr" d="M706.622 95.313s3.346-21.114 15.442-29.356c0 0-11.632 19.358-12.135 30.61l-3.307-1.254zm6.609-22.223c-6.775 7.684-7.718 17.616-7.696 22.734l8.842 2.902c4.082-4.506 12.214-14.544 12.156-22.889-.068-11.125-.305-13.998-.305-13.998s-5.244 2.477-12.997 11.251"/>
        </defs>
        <clipPath id="cs">
          <use xlink:href="#cr" overflow="visible"/>
        </clipPath>
        <linearGradient id="ct" gradientUnits="userSpaceOnUse" x1="-.692" y1="402.012" x2=".307" y2="402.012" gradientTransform="matrix(11.553 5.4499 4.6737 -9.827 -1158.006 4033.129)">
          <stop offset="0" stop-color="#a57e6b"/>
          <stop offset="1" stop-color="#20160c"/>
        </linearGradient>
        <path clip-path="url(#cs)" fill="url(#ct)" d="M709.376 53.718l31.544 14.88-18.191 38.249-31.543-14.88z"/>
        <g>
          <defs>
            <path id="cu" d="M-10 0h759.686v402.52H-10z"/>
          </defs>
          <clipPath id="cv">
            <use xlink:href="#cu" overflow="visible"/>
          </clipPath>
          <path clip-path="url(#cv)" fill="#FFF" d="M694.333 132.834l-3.879-1.46c-8.076 16.723-16.263 34.695-23.698 51.618.117-.002 2.775-.14 4.617-.257 12.488-27.533 22.96-49.901 22.96-49.901"/>
        </g>
        <g>
          <defs>
            <path id="cw" d="M689.108 129.877l.103.033 12.126 4.174.234.082L714.91 98.9l-.533-.174-8.842-2.902-.352-.118z"/>
          </defs>
          <clipPath id="cx">
            <use xlink:href="#cw" overflow="visible"/>
          </clipPath>
          <linearGradient id="cy" gradientUnits="userSpaceOnUse" x1=".29" y1="402.666" x2="1.29" y2="402.666" gradientTransform="matrix(-29.9314 -11.1868 -10.7434 28.9044 5056.521 -11513.23)">
            <stop offset="0" stop-color="#606163"/>
            <stop offset=".466" stop-color="#606163"/>
            <stop offset=".567" stop-color="#eaeaec"/>
            <stop offset=".657" stop-color="#323030"/>
            <stop offset=".764" stop-color="#fff"/>
            <stop offset=".832" stop-color="#231f20"/>
            <stop offset="1" stop-color="#231f20"/>
          </linearGradient>
          <path clip-path="url(#cx)" fill="url(#cy)" d="M711.763 142.633l-35.206-13.158 15.698-42.236 35.206 13.158z"/>
        </g>
        <g>
          <defs>
            <path id="cz" d="M-10 0h759.686v402.52H-10z"/>
          </defs>
          <clipPath id="cA">
            <use xlink:href="#cz" overflow="visible"/>
          </clipPath>
          <path clip-path="url(#cA)" fill="#D3C1B7" d="M706.622 95.313l3.308 1.253c.503-11.252 12.134-30.609 12.134-30.609-12.096 8.243-15.442 29.356-15.442 29.356"/>
        </g>
      </g>
      <g>
        <defs>
          <path id="cB" d="M551.536 160.688a1006.35 1006.35 0 0 0 6.766 6.203l.294.264c.242.221.493.446.738.671l.77.697c.293.266.587.534.888.8.214.199.435.392.657.593.33.299.667.6 1.002.904.899.806 1.807 1.619 2.72 2.442l.535.473c.588.532 1.194 1.069 1.792 1.603l1.563 1.385c.232.209.464.419.704.629.197.172.396.351.59.523.913.808 4.702 4.484 4.702 4.484l19.21 1.16-35.15-27.823 3.251-3.938c13.589 10.396 40.95 32.059 40.95 32.059l5.255.134s-11.392-8.749-16.574-12.742a1965.722 1965.722 0 0 0-6.048-4.628c-.398-.305-.798-.606-1.192-.909l-.123-.091c-.113-.085-.22-.17-.332-.254a1407.97 1407.97 0 0 0-5.01-3.788l-.192-.147c-.498-.375-.996-.746-1.484-1.115-.554-.415-1.101-.825-1.643-1.234-.137-.101-.273-.199-.407-.301l-1.293-.968c-.461-.342-.918-.683-1.376-1.021-.032-.029-.081-.062-.114-.089-.145-.103-.278-.206-.416-.309a1320.74 1320.74 0 0 0-9.472-6.963l-11.561 11.296z"/>
        </defs>
        <clipPath id="cC">
          <use xlink:href="#cB" overflow="visible"/>
        </clipPath>
        <linearGradient id="cD" gradientUnits="userSpaceOnUse" x1="-.172" y1="402.125" x2=".828" y2="402.125" gradientTransform="matrix(25.3732 -29.2203 21.6113 18.7644 -8121.771 -7365.784)">
          <stop offset="0" stop-color="#5d082c"/>
          <stop offset=".236" stop-color="#5d082c"/>
          <stop offset=".438" stop-color="#df1e2d"/>
          <stop offset=".697" stop-color="#c82026"/>
          <stop offset="1" stop-color="#c82026"/>
        </linearGradient>
        <path clip-path="url(#cC)" fill="url(#cD)" d="M584.169 212.285l41.712-48.037-49.741-43.19-41.713 48.038z"/>
        <defs>
          <path id="cE" d="M-10 0h759.686v402.52H-10z"/>
        </defs>
        <clipPath id="cF">
          <use xlink:href="#cE" overflow="visible"/>
        </clipPath>
        <path clip-path="url(#cF)" fill="#FFF" d="M562.565 151.758L559 155.5s14.69 11.495 35.466 28.018c2.817.144 6.155.426 9.223.433-13.459-10.816-27.535-21.797-41.124-32.193"/>
        <g>
          <defs>
            <path id="cG" d="M484.362 92.004c19.347 3.244 36.571 26.14 36.571 26.14l-3.092 3.217c-7.685-12.88-33.479-29.357-33.479-29.357m.994 13.923c5.178 9.777 21.022 17.211 28.635 20.323l8.535-8.069c-3.195-5.992-10.557-17.11-23.335-22.504-14.598-6.165-22.306-6.278-22.306-6.278s1.542 3.481 8.471 16.528"/>
          </defs>
          <clipPath id="cH">
            <use xlink:href="#cG" overflow="visible"/>
          </clipPath>
          <linearGradient id="cI" gradientUnits="userSpaceOnUse" x1=".377" y1="402.873" x2="1.378" y2="402.873" gradientTransform="matrix(-10.0115 12.5782 -10.7413 -8.4938 4835.003 3519.799)">
            <stop offset="0" stop-color="#a57e6b"/>
            <stop offset="1" stop-color="#20160c"/>
          </linearGradient>
          <path clip-path="url(#cH)" fill="url(#cI)" d="M494.516 67.25l-35.631 44.765 46.011 36.384 35.631-44.765z"/>
        </g>
        <g>
          <defs>
            <path id="cJ" d="M522.526 118.181l-8.535 8.069-.511.487 37.826 34.174.23-.223 11.559-11.296.083-.085-40.307-31.455z"/>
          </defs>
          <clipPath id="cK">
            <use xlink:href="#cJ" overflow="visible"/>
          </clipPath>
          <linearGradient id="cL" gradientUnits="userSpaceOnUse" x1="-.156" y1="402.371" x2=".844" y2="402.371" gradientTransform="matrix(29.0115 -30.8089 29.6818 28.0512 -11418.997 -11132.504)">
            <stop offset="0" stop-color="#606163"/>
            <stop offset=".466" stop-color="#606163"/>
            <stop offset=".567" stop-color="#eaeaec"/>
            <stop offset=".657" stop-color="#323030"/>
            <stop offset=".764" stop-color="#fff"/>
            <stop offset=".832" stop-color="#231f20"/>
            <stop offset="1" stop-color="#231f20"/>
          </linearGradient>
          <path clip-path="url(#cK)" fill="url(#cL)" d="M539.776 185.763l44.856-47.636L536.882 93l-44.857 47.635z"/>
        </g>
        <g>
          <defs>
            <path id="cM" d="M-10 0h759.686v402.52H-10z"/>
          </defs>
          <clipPath id="cN">
            <use xlink:href="#cM" overflow="visible"/>
          </clipPath>
          <path clip-path="url(#cN)" fill="#D3C1B7" d="M484.362 92.004s25.794 16.478 33.479 29.357l3.094-3.217s-17.226-22.896-36.573-26.14"/>
        </g>
      </g>
      <g>
        <defs>
          <path id="cO" d="M620.841 141.116v.012c-.014.241-.031.475-.046.715l-.081 1.185c-.029.459-.059.918-.087 1.378v.011c-.046.682-.091 1.361-.133 2.046a486.203 486.203 0 0 0-.131 2.092c-.104 1.627-.205 3.262-.306 4.908l-.001.018c-.017.268-.03.533-.048.802-.015.274-.034.552-.051.827-.146 2.472-.286 4.954-.428 7.471-.387 6.941-.745 14.051-1.073 21.283-.005.095-.011.104-.014.196.511.018 3.38.039 3.38.039 1.15-29.786 2.841-61.376 5.235-91.784l4.91.733s-2.772 42.35-5.411 91.104c1.597-.034 12.317-.201 12.317-.201l.105-2.799s.481-11.991.677-17.833l.003-.103c.085-2.543.163-5.068.236-7.567 0-.028 0-.051.006-.081.003-.236.013-.468.019-.706.008-.3.02-.61.024-.91.049-1.661.097-3.309.141-4.947 0-.095.002-.191.004-.285.012-.538.03-1.074.045-1.61v-.096l.05-2.024c.01-.475.022-.952.033-1.424l.001-.084c.01-.46.022-.921.033-1.378.002-.166.008-.336.01-.501 1.115-50.192-.122-88.695-3.309-99.19l-3.985-.096c-4.111 10.304-8.768 48.61-12.125 98.799"/>
        </defs>
        <clipPath id="cP">
          <use xlink:href="#cO" overflow="visible"/>
        </clipPath>
        <linearGradient id="cQ" gradientUnits="userSpaceOnUse" x1=".236" y1="402.543" x2="1.236" y2="402.543" gradientTransform="matrix(-39.725 -2.7503 -2.0503 29.4986 1487.609 -11758.99)">
          <stop offset="0" stop-color="#172952"/>
          <stop offset=".236" stop-color="#364ca0"/>
          <stop offset=".438" stop-color="#4059a8"/>
          <stop offset=".697" stop-color="#7f88c3"/>
          <stop offset="1" stop-color="#3b57a7"/>
        </linearGradient>
        <path clip-path="url(#cP)" fill="url(#cQ)" d="M641.268 185.732l-32.636-2.259 9.921-142.736 32.635 2.259z"/>
        <path fill="#FFF" d="M631.969 92.667l-4.91-.352c-2.395 30.407-4.085 61.998-5.236 91.784l.55-.029a3.78 3.78 0 0 0-.349.176c.91.016 1.827.03 2.737.038a12.846 12.846 0 0 1 1.344-.043 1.102 1.102 0 0 0-.39-.072s.316-.005.843-.017c2.638-48.754 5.411-91.485 5.411-91.485"/>
        <g>
          <defs>
            <path id="cR" d="M624.899 90.944l15.959.64-.158-49.45-12.403-.296z"/>
          </defs>
          <clipPath id="cS">
            <use xlink:href="#cR" overflow="visible"/>
          </clipPath>
          <linearGradient id="cT" gradientUnits="userSpaceOnUse" x1=".267" y1="402.525" x2="1.267" y2="402.525" gradientTransform="matrix(-38.1028 -1.0933 -1.0144 36.9261 1077.504 -14795.926)">
            <stop offset="0" stop-color="#606163"/>
            <stop offset=".466" stop-color="#606163"/>
            <stop offset=".567" stop-color="#eaeaec"/>
            <stop offset=".657" stop-color="#323030"/>
            <stop offset=".764" stop-color="#fff"/>
            <stop offset=".832" stop-color="#231f20"/>
            <stop offset="1" stop-color="#231f20"/>
          </linearGradient>
          <path clip-path="url(#cS)" fill="url(#cT)" d="M640.846 92.042l-17.313-.497 1.378-50.165 17.313.497z"/>
        </g>
        <path fill="#D3C1B7" d="M613.273 17.33c-.181 0-6.22 4.483-5.619 7.958.425 2.409 19.667 13.878 19.667 13.878l5.057.677-19.127-22.472c.026-.028.033-.041.022-.041"/>
        <g>
          <defs>
            <path id="cU" d="M627.321 39.166s-19.242-11.469-19.666-13.878c-.603-3.475 5.437-7.958 5.618-7.958.011 0 .004.013-.022.041l19.128 22.472-5.058-.677zm6.378-34.751c-1.131.067-2.184.135-2.985.135-.11 0-.212-.001-.31-.003l-.103-.001c-1.816 0-4.641 1.151-5.045 1.489l1.878 11.258-4.004-10.114s-2.2.921-4.151 2.187c-2.26 1.466-3.566 2.52-3.566 2.52l6.391 10.215-7.123-9.249-6.166 4.786-3.443 4.929-1.964 5.252 24.935 14.379 4.927.119 3.985.096 3.496.084 27.509-14.544s.522-2.155-3.99-7.706l-7.323 4.474 6.219-5.773-2.547-4.208-3.147-2.388s-3.457-3.897-9.684-6.217a.488.488 0 0 0-.173-.035c-.839 0-.577 3.002-3.607 10.394l2.177-10.614s-3.483-1.077-6.129-1.455c-.762-.111-1.619-.15-2.507-.15-1.175 0-2.406.069-3.55.14"/>
          </defs>
          <clipPath id="cV">
            <use xlink:href="#cU" overflow="visible"/>
          </clipPath>
          <linearGradient id="cW" gradientUnits="userSpaceOnUse" x1="-.193" y1="402.506" x2=".807" y2="402.506" gradientTransform="matrix(51.272 5.7713 5.79 -51.4816 -1703.773 20744)">
            <stop offset="0" stop-color="#a57e6b"/>
            <stop offset="1" stop-color="#20160c"/>
          </linearGradient>
          <path clip-path="url(#cV)" fill="url(#cW)" d="M603.923-2.992l68.802 7.745-5.062 45.011-68.802-7.745z"/>
        </g>
      </g>
    </g>
</svg>
