<svg xmlns="http://www.w3.org/2000/svg" width="200" height="200" viewBox="0 0 255 255" aria-hidden="true">
  <title>The Vinternet</title>
    <path d="M136.46 233.47l-18.154 3.607-94.303-156.82L54.5 37.198l76.602 142.14 48.555-149.42 44.971 28.374-88.168 175.18z" fill="#D6BFD3"></path>
    <path d="M156.64 230.68l-33.135 2.332-85.36-177.81 33.853-15.413 66.641 138.62 63.296-132.62 31.199 24.962-76.494 159.93z" fill="#864778"></path>
    <path d="M127.56 29.911c53.928 0 97.647 43.72 97.647 97.647 0 53.929-43.719 97.648-97.647 97.648-53.929 0-97.647-43.72-97.647-97.648 0-53.927 43.718-97.647 97.647-97.647m0-7.874c-58.184 0-105.52 47.338-105.52 105.52 0 28.186 10.977 54.686 30.907 74.615 19.93 19.931 46.429 30.906 74.614 30.906 28.186 0 54.684-10.976 74.614-30.906 19.932-19.93 30.906-46.43 30.906-74.615s-10.975-54.684-30.906-74.614c-19.93-19.929-46.428-30.907-74.614-30.907z" fill="#FFF"></path>
    <path d="M127.56 23.107c57.688 0 104.45 46.766 104.45 104.45 0 57.688-46.764 104.45-104.45 104.45S23.11 185.242 23.11 127.557c0-57.686 46.766-104.45 104.45-104.45m0-15.514c-32.044 0-62.17 12.479-84.83 35.137C20.072 65.39 7.593 95.516 7.593 127.56s12.479 62.171 35.137 84.828c22.66 22.658 52.786 35.139 84.83 35.139 32.043 0 62.172-12.48 84.829-35.139 22.658-22.657 35.137-52.784 35.137-84.828s-12.479-62.17-35.137-84.83C189.732 20.071 159.604 7.593 127.56 7.593z" fill="#874878"></path>
    <path d="M127.56 4.802c67.802 0 122.76 54.964 122.76 122.75 0 67.801-54.959 122.76-122.76 122.76-67.79 0-122.75-54.962-122.75-122.76 0-67.789 54.962-122.75 122.75-122.75m0-1.968c-33.312 0-64.632 12.974-88.189 36.531-23.558 23.557-36.532 54.877-36.532 88.19 0 33.315 12.974 64.641 36.531 88.199 23.555 23.559 54.875 36.532 88.189 36.532 33.317 0 64.642-12.974 88.198-36.532 23.559-23.558 36.531-54.883 36.531-88.199 0-33.313-12.973-64.633-36.531-88.189-23.558-23.558-54.882-36.532-88.197-36.532z" fill="#D5BFD3"></path>
</svg>
